<?xml version="1.0" standalone="no"?>
<!DOCTYPE svg PUBLIC "-//W3C//DTD SVG 1.1//EN" "http://www.w3.org/Graphics/SVG/1.1/DTD/svg11.dtd" >
<svg xmlns="http://www.w3.org/2000/svg" xmlns:xlink="http://www.w3.org/1999/xlink" version="1.1">
<metadata></metadata>
<defs>
<font id="itc_souvenirlightitalic" horiz-adv-x="614" >
<font-face units-per-em="2048" ascent="1638" descent="-410" />
<missing-glyph horiz-adv-x="500" />
<glyph horiz-adv-x="0" />
<glyph unicode="&#xd;" horiz-adv-x="681" />
<glyph unicode=" " d="M0 0z" />
<glyph unicode="!" d="M117 80q0 55 35.5 94t91.5 39q39 0 62.5 -28.5t23.5 -67.5q0 -55 -35 -94t-86 -39q-41 0 -66.5 27.5t-25.5 68.5zM229 414l7 67l32 328l45 545q4 37 6.5 57.5t11.5 51t22.5 47t38 28.5t57.5 12q43 0 70.5 -22.5t27.5 -65.5q0 -30 -37 -186l-174 -799q0 -2 -2 -11 t-3 -14.5t-3 -15.5t-5.5 -16t-6.5 -15.5t-7 -14.5t-9 -11t-11 -8t-15 -2q-45 0 -45 45z" />
<glyph unicode="&#x22;" horiz-adv-x="737" d="M166 961l8 98l43 360q12 109 37 140q29 31 74 30q76 0 75 -76q0 -12 -14 -83l-92 -439q-8 -33 -12 -46t-21.5 -29.5t-44.5 -16.5q-53 0 -53 62zM586 961l8 96l43 362q12 109 37 140q29 31 74 30q76 0 75 -76q0 -12 -14 -83l-92 -439q-6 -33 -11.5 -47t-21.5 -29.5 t-45 -15.5q-53 0 -53 62z" />
<glyph unicode="#" horiz-adv-x="1228" d="M33 584q0 31 22.5 48t55.5 17h186l164 326h-146q-63 0 -63 49q0 33 23.5 49.5t56.5 16.5h186l123 245q29 57 74 58q20 0 36.5 -13.5t16.5 -33.5q0 -14 -12 -48l-107 -208h299l125 249q29 53 72 54q18 0 33.5 -13.5t15.5 -31.5q0 -14 -27 -74l-92 -184h139q63 0 64 -48 q0 -31 -22.5 -48t-55.5 -17h-182l-164 -326h141q61 0 62 -49q0 -33 -22.5 -49t-55.5 -16h-182l-125 -250q-29 -53 -72 -54q-18 0 -33.5 13.5t-15.5 32.5q0 20 12 43l107 215h-299l-109 -220l-8 -16t-9 -17t-9.5 -15.5t-11.5 -14.5t-13 -10t-17.5 -8.5t-19.5 -2.5 q-20 0 -36.5 13.5t-16.5 32.5q0 20 14 49l105 209h-146q-61 0 -61 47zM428 651h299l164 326h-299z" />
<glyph unicode="$" horiz-adv-x="1228" d="M96 270q0 109 82 109q33 0 49.5 -23.5t16.5 -56.5v-37q0 -106 93 -154.5t212 -48.5q154 0 248 80q115 98 114 256q0 98 -67.5 168t-164.5 114t-194.5 90t-165 125t-67.5 191q0 188 142.5 317.5t330.5 129.5l25 149q10 57 24 68q12 8 39 8q61 0 61 -31q0 -43 -20 -131 l-10 -63q111 0 203 -70.5t92 -183.5q0 -51 -23.5 -89t-73.5 -38q-31 0 -50 20.5t-19 51.5q0 14 6 41.5t6 42.5q0 51 -61 86q-74 45 -183 45q-125 0 -227 -79t-102 -202q0 -88 68.5 -154.5t164.5 -112.5t193.5 -95.5t166 -134.5t68.5 -201q0 -205 -141 -341.5t-348 -146.5 l-23 -137q-8 -74 -20 -98q-12 -23 -61.5 -23t-49.5 37q0 16 2 25l35 196q-137 6 -254 89t-117 212z" />
<glyph unicode="%" horiz-adv-x="1843" d="M92 971q0 90 22.5 188t66.5 192.5t121 155t175 60.5q139 0 203.5 -101.5t64.5 -248.5q0 -88 -23.5 -187.5t-67.5 -193t-123 -154.5t-175 -61q-141 0 -202.5 100t-61.5 250zM221 946q0 -49 4 -84t16.5 -77t44.5 -64.5t81 -22.5q74 0 127 69t78.5 173t35.5 192.5t10 157.5 q0 82 -33.5 140.5t-109.5 58.5q-72 0 -126 -61.5t-79.5 -154.5t-37 -176t-11.5 -151zM326 23q0 10 14 28l29 39l1011 1405q4 6 17.5 27.5t19.5 27.5t20.5 13.5t32.5 7.5q41 0 41 -21q0 -8 -8 -22.5t-19.5 -29.5t-13.5 -19l-1030 -1426q-2 -4 -11 -16t-12 -16.5t-10.5 -10.5 t-15.5 -8t-20 -2q-45 0 -45 23zM1108 352q0 88 22.5 186.5t66.5 192.5t122 154.5t176 60.5q139 0 203.5 -101.5t64.5 -248.5q0 -121 -37.5 -252t-131 -237.5t-220.5 -106.5q-143 0 -204.5 100.5t-61.5 251.5zM1239 326q0 -49 4 -83t16.5 -77t44 -65.5t80.5 -22.5 q74 0 127.5 69.5t78 173t35.5 191.5t11 158q0 84 -33.5 141t-111.5 57q-72 0 -125 -61.5t-78.5 -154.5t-37 -176t-11.5 -150z" />
<glyph unicode="&#x26;" horiz-adv-x="1679" d="M31 299q0 326 426 526q-94 180 -95 312q0 176 132.5 284.5t312.5 108.5q131 0 230.5 -64.5t99.5 -189.5q0 -109 -77 -209t-171 -160.5t-203 -107.5l141 -236q86 -143 154 -221q221 221 221 332q0 31 -15.5 47t-34.5 21.5t-34.5 17.5t-15.5 35q0 57 80 57h317q72 0 72 -53 q0 -37 -53 -60q-47 -18 -73 -30.5t-53.5 -40t-36.5 -40t-52 -69.5l-265 -295q152 -174 293 -174q39 0 86 16q39 14 49 15q39 0 39 -39q0 -53 -84 -83t-147 -30q-106 0 -206.5 47t-164.5 131q-221 -178 -475 -178q-168 0 -282.5 84t-114.5 246zM213 332q0 -117 70.5 -184.5 t187.5 -67.5q166 0 360 143q-48 58 -161 240l-154 270q-121 -51 -212 -164.5t-91 -236.5zM543 1178q0 -109 96 -289q358 182 358 379q0 80 -60 125t-144 45q-113 0 -181.5 -74t-68.5 -186z" />
<glyph unicode="'" horiz-adv-x="327" d="M166 961l8 98l43 360q12 109 37 140q29 31 74 30q76 0 75 -76q0 -12 -14 -83l-92 -439q-8 -33 -12 -46t-21.5 -29.5t-44.5 -16.5q-53 0 -53 62z" />
<glyph unicode="(" horiz-adv-x="532" d="M43 297q0 289 100 584q76 227 273 530q4 4 20.5 29.5t27.5 39t28.5 33t35 28.5t35.5 9q51 0 51 -22q0 -10 -8 -23q-182 -264 -297 -596q-113 -319 -112 -624q0 -297 69 -523q0 -4 5 -24.5t5 -26.5t-1 -11t-4 -9t-6 -6t-8 -4.5t-8 -3.5t-10.5 -1h-10.5h-11h-10 q-25 0 -39 19q-33 41 -64 170q-61 209 -61 432z" />
<glyph unicode=")" horiz-adv-x="532" d="M-39 -303q0 4 31 65q338 535 338 1110q0 297 -103 633q0 2 -1 7.5t-1 7.5q0 31 47 30q33 0 46.5 -7t29.5 -36q43 -78 92 -301q45 -186 45 -336q1 -385 -161 -747l-187 -338q-43 -74 -80 -100q-12 -8 -37 -9q-59 0 -59 21z" />
<glyph unicode="*" horiz-adv-x="1105" d="M123 891q0 43 22.5 61.5t71.5 30.5l234 70l-197 139q-2 2 -10 8t-11.5 8t-10.5 7.5t-10 8.5l-9 9t-9.5 10t-6.5 10.5t-5 12.5t-3 13t-1 15q0 35 30 63.5t64 28.5q39 0 99 -69l143 -176l10 229q2 41 5 62.5t23.5 44t59.5 22.5t69 -22.5t30 -61.5q0 -27 -19 -74l-80 -225 l197 129q57 35 84 35q39 0 65.5 -28.5t26.5 -67.5q0 -41 -26.5 -60.5t-75.5 -33.5l-238 -70l207 -141q25 -16 35 -23.5t20.5 -25t10.5 -37.5q0 -39 -27 -65t-66 -26q-49 0 -90 52l-151 184l-6 -238q0 -115 -89 -114q-39 0 -65.5 24.5t-26.5 63.5q0 16 13 53l73 227 l-194 -127q-47 -31 -80 -30q-37 0 -61.5 28.5t-24.5 65.5z" />
<glyph unicode="+" horiz-adv-x="1351" d="M150 469v129h468v469h130v-469h469v-129h-469v-469h-130v469h-468z" />
<glyph unicode="," d="M23 -313q0 10 22 28q80 47 135 135q45 68 45 105q1 27 -22 29h-21q-37 0 -62.5 24.5t-25.5 61.5q0 53 39 90t92 37q51 0 83 -33t32 -82q0 -125 -117 -277q-31 -41 -89 -92t-89 -51q-23 0 -22 25z" />
<glyph unicode="-" horiz-adv-x="532" d="M37 549q0 25 12 65q6 20 14 24.5t33 4.5h336q41 0 41 -25q0 -59 -20 -79q-16 -12 -86 -13h-295q-35 0 -35 23z" />
<glyph unicode="." d="M109 80q0 55 35.5 93t91.5 38q37 0 61.5 -28.5t24.5 -67.5q0 -53 -35 -92t-88 -39q-41 0 -65.5 27.5t-24.5 68.5z" />
<glyph unicode="/" horiz-adv-x="450" d="M-281 -203q0 2 11 29l845 1651q2 4 11.5 24.5t14.5 26.5t18.5 14t29.5 8q45 0 45 -22q1 -17 -32 -74l-822 -1599q-2 -4 -7 -15.5t-8 -17.5t-9 -16.5t-13.5 -15.5t-16.5 -9t-19 -4q-47 0 -48 20z" />
<glyph unicode="0" horiz-adv-x="1228" d="M117 541q0 330 145 612q197 377 502 377q115 0 201 -46t134 -126t70.5 -173t22.5 -202q0 -119 -20.5 -250t-70.5 -269t-122 -246.5t-185.5 -178.5t-248.5 -70q-219 0 -336 176q-92 141 -92 396zM303 451q0 -377 256 -377q233 0 359 397q82 252 81 567q0 66 -10 126.5 t-34.5 123t-75 100t-119.5 37.5q-262 0 -377 -424q-80 -291 -80 -550z" />
<glyph unicode="1" horiz-adv-x="1228" d="M154 39q0 51 129 59q86 6 128 26.5t68 88.5q25 70 64 330l82 489q23 141 22.5 190.5t-30 63.5t-82.5 14l-148 -4q-66 0 -65 45q0 8 3 15.5t10 12.5t12 8t17.5 6t17.5 3t19 3l15 2l182 32q80 18 172 82q4 2 24.5 16.5t36 21.5t29.5 7q39 0 39 -43q0 -16 -10 -62t-10 -50 l-88 -473l-84 -498q-31 -223 -31 -229q0 -53 36 -69.5t99 -19.5q121 -8 121 -53q0 -53 -101 -53h-634q-43 0 -43 39z" />
<glyph unicode="2" horiz-adv-x="1228" d="M29 43q0 61 233 324l367 335q70 59 120 107.5t116.5 123.5t103.5 150.5t37 145.5q0 96 -66 148.5t-164 52.5q-135 0 -237 -78q-45 -33 -82 -84t-37 -97q0 -37 18.5 -69.5t18.5 -48.5q0 -41 -31 -66.5t-72 -25.5q-53 0 -82.5 33.5t-29.5 88.5q0 84 49 165t123 143 q172 139 397 139q160 0 262 -72q129 -92 129 -244q0 -86 -40 -171t-115.5 -161.5t-136 -126.5t-146.5 -114l-82 -61q-315 -231 -432 -426l164 -4l307 10q96 6 130 20.5t112 79.5q43 39 77 39q33 0 33 -27q0 -16 -18 -41l-39 -77q-57 -115 -76 -140q-14 -14 -31 -14h-805h-10 h-11h-10t-10.5 1t-9.5 3t-8 4t-6 5t-6 7.5t-3 10.5t-1 12z" />
<glyph unicode="3" horiz-adv-x="1228" d="M59 264q0 57 25 99.5t78 42.5q33 0 57.5 -18.5t24.5 -51.5q0 -14 -5.5 -45t-5.5 -47q0 -84 92.5 -130t184.5 -46q170 0 281.5 115.5t111.5 285.5q0 152 -110 221q-86 53 -246 49q-23 0 -45.5 -1t-39 11.5t-16.5 38.5q0 12 3.5 22.5t10.5 17t12 10.5t17.5 6t17.5 3t20.5 2 t19.5 1q197 20 303 94q135 98 135 264q0 104 -60.5 163t-166.5 59q-104 0 -184 -55.5t-80 -123.5q0 -10 3 -28.5t3 -26.5q0 -43 -30 -68.5t-75 -25.5t-76.5 32.5t-31.5 79.5q0 119 151 222q145 94 340 94q170 0 289 -79t119 -239q0 -152 -127 -259t-291 -140 q156 -14 249 -102t93 -242q0 -102 -54.5 -201.5t-140.5 -163.5q-182 -135 -426 -135q-104 0 -196 24.5t-163 95.5t-71 175z" />
<glyph unicode="4" horiz-adv-x="1228" d="M29 453q0 94 209 407q156 227 366 428q262 262 359 262q31 0 53 -21.5t22 -51.5q0 -27 -8 -60l-149 -905h243q23 -4 23 -39q0 -45 -33 -67q-10 -6 -67 -7h-185l-28 -182q-8 -41 -9 -65q0 -18 8.5 -30.5t17.5 -17t30 -12.5q2 0 6 -2q14 -4 21 -7t13.5 -12.5t6.5 -21.5 q0 -49 -78 -49h-315q-53 0 -54 33q0 43 70 55q49 8 70 33q18 25 41 141l22 137h-504l-30 -2q-31 0 -43.5 1t-35 6.5t-32.5 17.5t-10 31zM176 512h524l152 854q-406 -322 -670 -842z" />
<glyph unicode="5" horiz-adv-x="1228" d="M70 238q0 61 36.5 106t96.5 45q41 0 67.5 -25.5t26.5 -64.5q0 -27 -17.5 -56.5t-17.5 -49.5q0 -41 44 -71t92 -41t87 -11q190 0 309 149.5t119 343.5q0 131 -69.5 204t-198.5 73q-170 0 -303 -140q-35 -35 -53 -34q-23 0 -40.5 13t-17.5 33.5t19.5 100.5t21.5 88l107 459 l31 149q0 20 14 21q4 -2 11 -4t11 -2q90 -25 289 -25l355 31q2 2 8 2t10 4q33 -10 33 -33q0 -53 -57.5 -91t-143.5 -55.5t-153.5 -23.5t-120.5 -6q-95 1 -177 21l-118 -519q61 59 157.5 92t188.5 33q176 0 282.5 -115.5t106.5 -293.5q0 -231 -164 -400q-82 -86 -200.5 -131 t-243.5 -45q-68 0 -136.5 14.5t-137 43t-111.5 84t-43 127.5z" />
<glyph unicode="6" horiz-adv-x="1228" d="M94 451q0 195 80 396.5t209 356.5q139 160 313 244q213 102 406 102q55 0 55 -47q0 -10 -4 -19t-13.5 -15.5t-17.5 -10.5t-22.5 -6t-21.5 -3t-22.5 -3t-17.5 -2q-516 -82 -700 -674q150 178 375 178q180 0 295.5 -105.5t115.5 -285.5q0 -244 -175 -416t-417 -172 q-217 0 -327.5 131t-110.5 351zM285 375q0 -135 63.5 -221t192.5 -86q176 0 288.5 148.5t112.5 330.5q0 135 -64.5 214t-195.5 79q-180 0 -288.5 -140.5t-108.5 -324.5z" />
<glyph unicode="7" horiz-adv-x="1228" d="M250 1200q0 8 4 21l29 139q6 39 9 55.5t13 41t30.5 33.5t51.5 9h801q59 0 59 -26q0 -12 -8 -32t-22.5 -44.5t-16.5 -28.5l-498 -909l-188 -408q-25 -59 -53.5 -84.5t-87.5 -25.5q-35 0 -68 12t-33 43q0 63 373 666l424 675h-424q-184 0 -215 -10q-53 -23 -82 -113 q-6 -20 -10 -28t-15.5 -17.5t-27.5 -9.5q-45 0 -45 41z" />
<glyph unicode="8" horiz-adv-x="1228" d="M57 297q0 297 457 489q-213 119 -213 322q0 84 48 166t120 135q156 121 379 121q100 0 187 -27.5t150.5 -98.5t63.5 -171q0 -80 -36.5 -149.5t-104.5 -122t-130 -87t-144 -69.5q72 -41 108.5 -66.5t80.5 -67.5t63.5 -95.5t19.5 -122.5q0 -96 -52.5 -193.5t-131.5 -163.5 q-166 -127 -414 -127q-106 0 -204.5 32t-172.5 108.5t-74 187.5zM215 309q0 -119 88 -180t213 -61q170 0 293 90t123 254q0 66 -36 118t-72 76.5t-111.5 63.5t-100.5 55q-80 -35 -140 -68.5t-123.5 -85t-98.5 -118t-35 -144.5zM479 1159q0 -100 53 -155q60 -60 195 -146 q143 49 251.5 147.5t108.5 229.5q0 100 -77.5 149.5t-188.5 49.5q-135 0 -238.5 -73t-103.5 -202z" />
<glyph unicode="9" horiz-adv-x="1228" d="M141 16q0 10 4.5 19.5t14.5 15.5t18 10.5t22.5 6.5t21.5 3t22.5 3t17.5 2q515 77 701 663q-147 -174 -377 -174q-180 0 -296 103.5t-116 281.5q0 240 176 410t418 170q217 0 327.5 -129t110.5 -348q0 -193 -79.5 -390.5t-211.5 -351.5q-131 -156 -311 -239 q-217 -102 -405 -103q-57 0 -58 47zM358 956q0 -131 65.5 -209.5t194.5 -78.5q180 0 289 138t109 322q0 133 -63.5 217.5t-192.5 84.5q-176 0 -289 -146.5t-113 -327.5z" />
<glyph unicode=":" d="M113 80q0 55 35.5 93t91.5 38q39 0 62.5 -28.5t23.5 -67.5q0 -53 -34 -92t-87 -39q-41 0 -66.5 27.5t-25.5 68.5zM203 680q0 55 35.5 92t91.5 37q39 0 62.5 -28.5t23.5 -67.5q0 -53 -34 -92t-87 -39q-43 0 -67.5 27.5t-24.5 70.5z" />
<glyph unicode=";" d="M23 -313q0 10 22 28q84 49 137 135q45 78 45.5 105t-24.5 29h-19q-39 0 -64.5 23.5t-25.5 62.5q0 53 39 91t92 38q51 0 83 -34t32 -83q0 -125 -117 -277q-33 -41 -89 -92t-87 -51q-25 0 -24 25zM184 674q0 55 36 92t91 37q39 0 62.5 -29t23.5 -67q0 -53 -34 -92.5 t-87 -39.5q-43 0 -67.5 28t-24.5 71z" />
<glyph unicode="&#x3c;" horiz-adv-x="1351" d="M115 477v119l1134 522v-133l-987 -450l987 -445v-133z" />
<glyph unicode="=" horiz-adv-x="1351" d="M150 313v129h1064v-129h-1064zM150 627v129h1064v-129h-1064z" />
<glyph unicode="&#x3e;" horiz-adv-x="1351" d="M115 -43v133l987 445l-987 450v133l1134 -522v-119z" />
<glyph unicode="?" horiz-adv-x="860" d="M141 1253q0 104 119 199q129 98 301 98q164 0 276.5 -84t112.5 -243q0 -186 -162 -342q-53 -51 -116.5 -92t-108.5 -64t-135 -63q-35 -14 -43 -26.5t-18 -53.5l-17 -82q0 -4 -3 -27.5t-6 -37t-9 -32t-17.5 -27.5t-27.5 -9q-45 0 -45 47q0 10 6 71l28 164q2 10 4.5 27.5 t3.5 25t6 18.5t14 17t26 13q174 66 301 170q70 59 113.5 148t43.5 179q0 98 -70.5 156.5t-168.5 58.5t-168 -51q-53 -35 -55 -106q0 -66 -21 -91q-29 -37 -86 -36q-78 0 -78 75zM150 80q0 55 35.5 93t90.5 38q37 0 61.5 -27.5t24.5 -66.5q0 -55 -34.5 -94t-87.5 -39 q-41 0 -65.5 26.5t-24.5 69.5z" />
<glyph unicode="@" horiz-adv-x="1679" d="M88 739q0 332 230.5 561.5t562.5 229.5q281 0 490.5 -182.5t209.5 -458.5q0 -217 -145 -391q-76 -88 -176.5 -145.5t-206.5 -57.5q-76 0 -111 41t-24 117q-137 -145 -293 -146q-115 0 -179.5 77t-64.5 191q0 141 62.5 285t184.5 245t267 101q152 0 215 -125l37 95h162 l-242 -623q-41 -123 -41 -135q0 -53 74 -53q147 0 291 178q125 154 125 344q0 113 -49.5 223.5t-131.5 189.5q-176 168 -452 168q-305 0 -516 -213t-211 -518q0 -289 208.5 -495.5t497.5 -206.5q199 0 364 100.5t257 278.5h73q-98 -211 -281 -328t-415 -117 q-317 0 -544.5 226.5t-227.5 543.5zM532 520q0 -63 33 -103t94 -40q53 0 94.5 19.5t76 65.5t51 72.5t49.5 90.5q121 238 121 364q0 61 -30 103.5t-89 42.5q-109 0 -205 -115t-145.5 -255t-49.5 -245z" />
<glyph unicode="A" horiz-adv-x="1515" d="M-53 35q0 31 33 53q12 8 20 14.5t15.5 10.5t12.5 11t9 10t8 13.5t7 14.5t9.5 19.5t10.5 23.5q352 762 800 1306q18 18 33 19q16 0 47 -62q186 -397 283 -911l57 -305q18 -94 25 -115q8 -27 41 -45q39 -23 39 -45q0 -47 -72 -47h-287q-51 0 -51 39q0 31 49 51 q29 12 36 15.5t20.5 14.5t16.5 24.5t3 37.5q0 55 -29 199l-26 137h-692q-45 -74 -98.5 -190.5t-53.5 -165.5q0 -27 13.5 -44.5t30.5 -22.5t30.5 -15t13.5 -29q0 -51 -80 -51h-188q-4 0 -20.5 -1t-24.5 0t-19.5 3t-16.5 10t-5 23zM422 625h610q-86 420 -194 651 q-197 -237 -416 -651z" />
<glyph unicode="B" horiz-adv-x="1392" d="M4 37q0 37 53 51q45 10 70 40t30 52.5t15 81.5l139 823q37 213 37 250q0 33 -11 45.5t-44 22.5q-2 2 -9.5 4t-10.5 3t-9 4t-9 5t-7 5t-6 7.5t-3 9.5t-1 11q0 12 3 20.5t10 13.5t13 8t17.5 4t17.5 1h19.5h15.5h624q135 0 232 -49q70 -35 111.5 -96.5t41.5 -134.5 q0 -158 -132 -269.5t-300 -146.5q166 -14 285 -106.5t119 -247.5q0 -203 -195 -345q-143 -104 -393 -104h-672q-51 0 -51 37zM344 182q0 -49 47 -67q43 -18 170 -19q252 0 371 66q182 100 182 287q0 119 -95 195.5t-222 98.5q-215 -63 -381 -81l-37 -218q-35 -209 -35 -262z M432 766q426 68 580 188q61 47 100 118t39 147q0 113 -107 151q-74 27 -262 27q-152 0 -190 -15q-35 -14 -49 -49q-31 -73 -74 -356z" />
<glyph unicode="C" horiz-adv-x="1474" d="M86 616q0 242 119 453t324.5 336t447.5 125q201 0 385 -107q4 -2 17.5 -10t19.5 -11t18.5 -11.5t19.5 -15.5t14 -16t10 -19.5t3 -20.5q0 -14 -4 -43l-10 -66q0 -2 -1 -16t-2 -21.5l-3 -22.5t-5 -23.5t-6 -21.5t-8.5 -21.5t-12.5 -15.5t-16.5 -11t-19.5 -4q-18 0 -29.5 12 t-14.5 21.5t-7 33.5q-31 143 -104 207q-113 100 -277 100q-305 0 -485 -274q-76 -113 -122 -261.5t-46 -283.5q0 -225 92 -358q57 -82 150.5 -125t199.5 -43q137 0 283.5 73.5t230.5 182.5q33 43 56 43q20 0 39.5 -18.5t19.5 -38.5q0 -47 -69.5 -116t-131.5 -108 q-205 -131 -450 -131q-285 0 -455 181.5t-170 465.5z" />
<glyph unicode="D" horiz-adv-x="1556" d="M2 37q0 39 53 51q45 10 70 41t30 51.5t17 83.5l150 889l18 127q8 37 8 61q0 20 -7 32.5t-17.5 18t-30.5 13.5q-18 6 -27.5 9t-19.5 14.5t-10 25.5q0 12 6 21.5t12 14.5t20.5 7t21.5 2h22.5h19.5h508q283 0 467 -153q100 -82 154.5 -204t54.5 -257q0 -172 -73 -347.5 t-196 -295.5q-137 -135 -302 -188.5t-378 -53.5h-520q-51 0 -51 37zM350 201q0 -57 35 -78q45 -29 176 -29q164 0 312.5 59.5t250.5 176.5q96 109 147.5 257t51.5 302q0 516 -561 516q-139 0 -191 -35q-37 -29 -61 -176l-100 -588l-45 -282q0 -2 -7.5 -51.5t-7.5 -71.5z" />
<glyph unicode="E" horiz-adv-x="1351" d="M2 39q0 16 8 26.5t17.5 13.5t27.5 9q63 18 88 72q23 53 66 309l102 621q37 207 37 239q0 35 -12 50.5t-43 25.5q-2 2 -11.5 4t-12.5 4t-10 5t-10 6t-6 8.5t-5 10.5t-2 13q0 16 6 25.5t20 13.5t23.5 5t30 0t22.5 -1h926q29 0 43 -13t13 -32.5t-1 -44.5v-29.5t-2 -43 t-6 -40t-14.5 -35t-26.5 -12.5q-20 0 -43 35q-49 68 -152 92q-76 18 -246 19q-231 0 -274 -47q-12 -14 -23.5 -42t-15.5 -48.5t-10 -60.5t-8 -46l-49 -291h417q76 0 140 43q37 23 51 23q31 0 30 -35q0 -20 -12 -88q0 -4 -2 -18.5t-3 -21.5t-4 -19.5t-8 -19.5t-11.5 -15.5 t-15.5 -12.5t-21 -4q-18 0 -52 29q-31 27 -90 33h-436l-47 -273q-35 -223 -35 -297q0 -53 41 -69q35 -16 174 -17l285 13q92 10 144.5 33.5t127.5 84.5q45 41 68 41q31 0 31 -22q0 -31 -64 -201q-10 -29 -23.5 -38t-41.5 -9h-1039q-51 0 -51 39z" />
<glyph unicode="F" horiz-adv-x="1187" d="M2 39q0 35 53 49q27 6 47.5 21.5t29.5 23.5t19.5 40t11.5 38t9 51l150 893l18 129q0 4 4 27.5t4 34.5q0 29 -13 40t-44 23q-2 0 -9.5 3t-10.5 4l-9 3t-8 4t-7 6.5t-6 8.5t-3 9t-2 11q0 41 55 41h932q39 0 47 -14q16 -31 16 -111q0 -123 -49 -123q-18 0 -39 27 q-51 68 -145 92q-115 30 -237 30q-21 0 -42 -1h-39t-54.5 -2t-51 -5t-50 -12.5t-28.5 -23.5q-33 -45 -59 -250l-48 -281h289q115 0 228 37q49 16 61 17q37 0 37 -43q0 -86 -27 -158q-12 -33 -49 -33q-18 0 -49 26.5t-125 47.5h-383l-51 -307q-37 -213 -37 -248 q0 -31 12 -44.5t43 -27.5l8 -2l12.5 -5t10.5 -5t10 -6t7 -7.5t6.5 -10.5t1.5 -11q0 -16 -6.5 -26.5t-20.5 -14.5t-21.5 -5t-29 0t-23.5 1h-297q-49 0 -49 39z" />
<glyph unicode="G" horiz-adv-x="1556" d="M82 621q0 172 68.5 339.5t187.5 294.5q258 274 649 275q207 0 369 -74q35 -16 55.5 -28.5t47 -33t38.5 -46t12 -58.5q0 -10 -12 -96q0 -4 -3 -26.5t-5 -34t-8 -27.5t-17.5 -24.5t-27.5 -8.5q-43 0 -56 74q-33 139 -149.5 203.5t-272.5 64.5q-291 0 -483 -254 q-184 -244 -184 -536q0 -238 121 -373q150 -172 399 -172q219 0 344 110q121 111 121 355q0 66 -39 82q-37 14 -123 14h-63h-11.5h-11.5h-11t-11.5 1t-9.5 3t-9 5t-7 7.5t-4 9.5t-1 13q0 76 82 76h299h98q2 0 15.5 1t17.5 0t13 -3t12.5 -9.5t3.5 -17.5q0 -12 -5 -25 q-59 -193 -75 -466q0 -20 -6.5 -33t-14.5 -20t-29 -23q-109 -82 -283.5 -136.5t-316.5 -54.5q-305 0 -504.5 175t-199.5 477z" />
<glyph unicode="H" horiz-adv-x="1679" d="M4 37q0 16 8 26.5t17.5 14.5t25.5 10q66 14 90 72q18 43 64 309l102 616q37 178 37 252q0 31 -12 43.5t-45 22.5q-2 2 -12.5 5t-13.5 5t-10 6t-10 8.5t-6 11.5t-3 15q0 12 6 21.5t12 14.5t20.5 7t21.5 2h22.5h19.5h254h14h16.5t16.5 -1t16.5 -3t12.5 -7t9 -12.5t3 -17.5 q0 -39 -51 -49q-33 -8 -54.5 -23.5t-34 -43t-17.5 -47t-11 -62.5l-63 -365h894l50 310q20 143 20 157q0 31 -12 44.5t-41 23.5q-2 2 -9.5 4t-10.5 3t-9 4t-9 5t-7 5t-6 7.5t-3 9.5t-1 11q0 47 53 47h344q47 0 47 -41q0 -37 -51 -49q-66 -18 -90 -74q-18 -39 -64 -307 l-106 -631q-31 -215 -31 -223q0 -61 53 -82q2 0 14.5 -5t16.5 -7t11 -8t10.5 -12.5t3.5 -16.5q0 -16 -6.5 -25.5t-20.5 -13.5t-22.5 -5t-29 0t-22.5 1h-297q-47 0 -47 37q0 16 8 26.5t17.5 14.5t25.5 10q66 16 90 72q16 35 64 309l49 293h-895l-55 -342q-37 -229 -37 -260 q0 -23 6 -35t16.5 -18.5t32.5 -14.5l8 -2l12.5 -5t10.5 -5t10 -6t7 -7.5t6.5 -10.5t1.5 -11q0 -16 -6.5 -26.5t-20.5 -14.5t-22.5 -5t-30 0t-23.5 1h-254h-16.5h-20.5t-18 1t-16.5 5t-11.5 11.5t-5 19.5z" />
<glyph unicode="I" d="M4 37q0 16 8 26.5t17.5 14.5t25.5 10q68 18 90 72q18 45 64 309l102 618q37 213 37 242q0 33 -12 48.5t-43 27.5q-4 2 -11.5 4t-11.5 4t-11 5t-10 6t-6 7.5t-5 10.5t-2 12q0 45 55 45h344q47 0 47 -39q0 -37 -53 -49q-66 -18 -88 -72q-21 -51 -66 -309l-102 -620 q-35 -203 -35 -236q0 -59 53 -82l25 -8q33 -14 33 -41q0 -43 -54 -43h-344q-47 0 -47 37z" />
<glyph unicode="J" horiz-adv-x="1024" d="M-25 240q0 113 71 206t179 93q84 0 84 -80q0 -33 -18.5 -59.5t-48.5 -26.5q-8 0 -24.5 3t-24.5 3q-45 0 -69 -43t-24 -90q0 -82 54.5 -124t138.5 -42q170 0 246 141q27 49 84 348l26 158l60 360q36 207 36 240q0 59 -55 78q-2 2 -9 4t-10 3t-9.5 4t-9.5 5t-7 5.5t-6 7.5 t-3 9t-1 11q0 45 53 45h344q47 0 47 -39q0 -37 -53 -49q-63 -16 -88 -72q-16 -37 -64 -309l-110 -653q-27 -178 -129 -283q-123 -125 -326 -125q-141 0 -237.5 67.5t-96.5 203.5z" />
<glyph unicode="K" horiz-adv-x="1433" d="M4 37q0 16 8 26.5t17.5 14.5t25.5 10q66 16 90 70q14 35 64 311l102 618q37 213 37 246t-12 47.5t-43 24.5q-55 18 -55 49q0 37 34 44q16 3 32 3q17 0 32 -4h256q4 0 15 1t17.5 1h16.5t16.5 -2t12.5 -6t9 -12.5t3 -18.5q0 -37 -53 -49q-66 -16 -90 -72q-13 -28 -64 -309 l-57 -350q47 39 136 108.5t158.5 128t129.5 115.5l209 203q4 4 17 18.5t21.5 22.5t17.5 21.5t14 26.5t5 26q0 29 -43 49t-43 45q0 55 82 55h305q61 0 62 -45q0 -27 -15.5 -39t-48.5 -24q-51 -20 -110 -80q-266 -260 -492 -445q260 -326 375 -671q16 -47 37.5 -73t38 -30 t28 -14t11.5 -31q0 -47 -51 -47h-289q-45 0 -45 35q0 31 47 53.5t47 56.5q0 74 -109 291l-192 305l-16 25q-63 -51 -170 -132t-144 -110l-18 -114q-37 -207 -37 -246q0 -33 12 -46.5t43 -25.5q2 0 10.5 -3t11.5 -4t10 -4t10 -6t7 -7.5t6.5 -10.5t2.5 -12q0 -45 -56 -45h-342 q-47 0 -47 37z" />
<glyph unicode="L" horiz-adv-x="1310" d="M14 37q0 23 12.5 32t39.5 19q37 16 54 33.5t30 54.5q20 53 59 293l102 621q35 215 35 245q0 33 -11 46.5t-42 25.5q-4 2 -13.5 5t-13.5 5t-11 5t-10 7.5t-6 11.5t-3 15q0 16 6 25.5t20 13.5t22.5 5t28 0t21.5 -1h278q4 0 20.5 1t25 0t20.5 -4t17 -11t5 -23q0 -27 -15 -36 t-46 -15q-43 -8 -64.5 -21.5t-37.5 -50.5q-20 -49 -64 -309l-84 -506l-16 -114q-20 -164 -21 -197q0 -51 11.5 -72.5t56.5 -27.5q70 -12 209 -13q150 0 272 23q109 20 248 123q20 12 31 12q12 0 22 -9t10 -22q0 -20 -26.5 -95t-40.5 -99q-14 -23 -30.5 -28t-51.5 -5h-1008 q-41 0 -41 37z" />
<glyph unicode="M" horiz-adv-x="1802" d="M12 33q0 14 5.5 24.5t22.5 19.5t20 11t28 10q27 10 44.5 23.5t27.5 37t13 35t8 49.5t7 48l154 950q10 72 10 88q0 33 -14 48.5t-49 25.5q-2 0 -12.5 3t-12.5 4t-10 4t-10 6t-7.5 7.5t-6.5 10.5t-1 14q0 47 68 47h260q31 0 40 -17.5t15 -56.5l113 -450q61 -250 137 -457 l17 -47l79 125l506 850q16 35 27.5 44t44.5 9h287q43 0 43 -29q0 -47 -56 -57q-86 -18 -106 -63q-8 -20 -20.5 -78t-27 -136.5t-16.5 -88.5l-94 -562q-41 -272 -41 -307q0 -37 16.5 -56.5t36 -23.5t36 -14t16.5 -31q0 -53 -56 -53h-348q-33 0 -32 37q0 14 7 24.5t13 12.5 t25 10q70 27 81 55q8 16 41 191l197 1005h-14l-580 -977q-86 -135 -106 -159q-14 -18 -31 -19q-18 0 -33 29q-82 238 -164 545q-43 162 -90 356q-42 172 -42 193q0 2 1 2h-14l-78 -539l-47 -305q-29 -223 -29 -283q0 -41 16.5 -61.5t35 -23.5t35 -13t16.5 -35q0 -45 -60 -45 h-317q-25 0 -25 33z" />
<glyph unicode="N" horiz-adv-x="1597" d="M31 27q0 45 65 61q31 8 52.5 28.5t36 58.5t21.5 58.5t15 71.5t10 57l80 486q55 328 56 457q0 14 -2.5 26t-3.5 20.5t-8 15.5t-10 11t-14.5 9.5t-15.5 7.5t-20.5 8t-22.5 8q-43 16 -43 45q0 25 21 33q25 10 151 10h154q16 -12 25 -20q154 -188 385 -557q49 -80 97 -168 t112.5 -213t89.5 -174l114 723q31 190 31 233q0 59 -64 90q-2 2 -10 6t-11 5t-8 6.5t-7 8.5t-4.5 9t-2.5 14q0 37 58 37h260q49 0 49 -26q0 -35 -53 -58q-31 -12 -51.5 -38.5t-33.5 -73t-16.5 -64.5t-11.5 -72l-168 -1081q0 -2 -3 -19.5t-4 -24.5t-5 -20.5t-10 -19.5 t-15.5 -12t-21.5 -6q-29 0 -41 41q-143 336 -340 682q-160 279 -401 606h-3l-155 -1131q0 -41 21.5 -63.5t47 -26.5t47 -15t21.5 -32q0 -45 -63 -45h-345q-33 0 -32 27z" />
<glyph unicode="O" horiz-adv-x="1597" d="M84 621q0 166 62.5 333.5t168.5 294.5q233 281 615 281q295 0 465 -177t170 -472q0 -246 -99.5 -452t-291 -333t-439.5 -127q-301 0 -476 174t-175 478zM281 575q0 -219 115.5 -359t330.5 -140q160 0 288 74.5t210 211.5q66 106 102.5 256t36.5 287q0 229 -113.5 372.5 t-337.5 143.5q-156 0 -280.5 -78.5t-199.5 -204.5t-113.5 -271.5t-38.5 -291.5z" />
<glyph unicode="P" horiz-adv-x="1310" d="M4 37q0 16 8 26.5t17.5 14.5t25.5 10q63 14 90 72q20 47 64 311l102 616q35 203 35 238q0 37 -11 54.5t-42 27.5q-18 6 -27.5 9t-19.5 14.5t-10 25.5q0 12 6 21.5t13 13.5t21.5 6t22.5 2h23.5h19.5h520q506 0 506 -334q0 -143 -94 -260t-234 -188q-260 -135 -561 -135 h-80l-28 -170q-2 -20 -11.5 -73.5t-15.5 -96.5t-6 -68q0 -37 10 -52.5t43 -29.5l23 -8q33 -12 32 -41q0 -43 -53 -43h-342q-47 0 -47 37zM418 688h53q248 0 438 96q266 139 267 359q0 66 -34 124t-91 87q-98 49 -265 49q-162 0 -217 -43q-12 -10 -22 -25.5t-16.5 -31 t-12.5 -40t-8 -37t-7 -39t-5 -32.5z" />
<glyph unicode="Q" horiz-adv-x="1597" d="M88 614q0 168 59.5 338t163.5 295q113 135 276 209t341 74q303 0 475 -177t172 -483q0 -205 -80 -396t-238.5 -329.5t-361.5 -167.5q118 -124 302 -124h3q18 0 56 4t57 4q55 0 55 -56q0 -104 -160 -104q-141 0 -256.5 71.5t-179.5 196.5q-295 8 -457 131 q-113 86 -170 223.5t-57 290.5zM291 575q0 -221 111.5 -355t328.5 -148q-16 68 -16 153q0 129 59 129q35 0 35 -50v-11v-23q0 -94 29 -190q260 45 397 282q61 109 98 253.5t37 273.5q0 248 -100 377q-55 76 -148.5 115.5t-191.5 39.5q-156 0 -283 -77.5t-201.5 -203.5 t-114.5 -271.5t-40 -293.5z" />
<glyph unicode="R" horiz-adv-x="1433" d="M4 37q0 25 12.5 34t38.5 17q63 18 90 72q18 43 64 309l102 618q35 215 35 246q0 33 -11 47.5t-42 24.5q-2 2 -9.5 4t-10.5 3t-9 4t-9 5t-7 6.5t-6 8.5t-3 9t-1 11q0 43 53 43h641q195 0 285 -29q80 -25 124.5 -88t44.5 -147q0 -172 -133 -298t-315 -177 q145 -215 221 -535q18 -84 43 -110q14 -14 39 -27q41 -18 41 -47q0 -41 -39 -41h-352q-31 0 -31 35q0 23 19.5 36t43 19t43 25.5t19.5 52.5q0 113 -82 309q-51 123 -133 232l-358 -66l-39 -233q-35 -215 -35 -248t11 -45.5t42 -24.5l25 -8q33 -10 33 -41q-1 -43 -54 -43 h-344q-47 0 -47 37zM430 760q92 10 175 23.5t196.5 45t194.5 75.5t138.5 119t57.5 169q0 221 -377 221q-203 0 -258 -45q-14 -12 -25.5 -42t-16.5 -57.5t-11 -65.5t-8 -48z" />
<glyph unicode="S" horiz-adv-x="1269" d="M33 328q0 78 39 128t112 50q39 0 67 -22.5t28 -59.5q-1 -30 -19 -59q-27 -45 -27 -80q0 -88 105 -144q106 -59 254 -59q162 0 270 80q129 96 129 241q0 49 -21.5 90.5t-45 66t-76.5 53t-76.5 37.5t-85.5 32q-197 72 -303 145q-160 113 -160 273q0 201 159 315.5 t366 114.5q197 0 370 -82q8 -4 22.5 -10t19.5 -9.5t15.5 -9.5t13.5 -9t9 -10t7 -15.5t3 -18.5t2 -23q0 -33 -8 -114.5t-14 -100.5q-12 -29 -41 -28q-18 0 -30.5 13t-15.5 23.5t-9 34.5q-29 133 -84 183q-85 73 -244 73h-4q-150 0 -240 -71q-104 -78 -104 -205 q0 -80 56 -142.5t140 -98.5t183.5 -79t183.5 -83.5t140.5 -115.5t56.5 -171q0 -154 -90.5 -269.5t-222.5 -169t-281 -53.5q-119 0 -238 33t-215 118t-96 208z" />
<glyph unicode="T" horiz-adv-x="1351" d="M143 1255q0 27 56 183q2 4 4 13t3 12t4 10.5t5 9.5t6 7t8 6t10.5 2t14.5 1h1112q31 0 35 -10q20 -43 20 -148v-13v-16v-16.5t-2 -17.5t-4 -15.5t-6 -15.5t-9 -11t-12.5 -8t-15.5 -3q-20 0 -51 28.5t-63.5 61.5t-106.5 61.5t-170 28.5q-14 0 -26.5 -1t-21.5 -5t-16.5 -6 t-12.5 -10.5t-7 -12.5t-5 -16.5t-5 -18.5t-4 -22.5t-4 -24.5l-52 -280l-100 -598q-33 -197 -33 -246q0 -33 10.5 -45.5t43.5 -26.5l22 -8q33 -12 33 -41q0 -43 -53 -43h-349q-47 0 -47 41q0 33 54 47q66 16 88 70q29 68 63 311l123 741q23 150 23 160q0 8 -2.5 14.5 t-8.5 9.5t-11 5t-14.5 3t-14.5 1h-15h-12q-117 0 -209 -29q-82 -25 -201 -129q-23 -23 -41 -22q-33 0 -33 32z" />
<glyph unicode="U" horiz-adv-x="1556" d="M129 373q0 164 88 557q84 354 84 399q0 37 -22.5 52.5t-45 26.5t-22.5 38q0 53 74 53h305q63 0 63 -41q0 -39 -55 -59q-31 -12 -41 -17.5t-25.5 -19.5t-25.5 -37q-35 -69 -78 -262l-66 -299q-49 -242 -49 -358q0 -164 115 -247t285 -83q129 0 243.5 51t184.5 149 q41 61 72.5 153.5t44 156t28.5 170.5l51 514v10q0 35 -2 51.5t-14 35.5t-39 32q-2 0 -11 4t-11.5 5t-10.5 5t-11 7t-7 8.5t-6 11.5t-2 12q0 47 61 47h285q53 0 53 -41q0 -33 -49 -51q-47 -20 -64.5 -37.5t-25.5 -64.5l-19 -150l-24 -203q-51 -496 -142 -665 q-82 -160 -242.5 -239t-353.5 -79q-98 0 -194 21.5t-184 66.5t-141.5 127t-53.5 189z" />
<glyph unicode="V" horiz-adv-x="1433" d="M176 1448q0 51 66 51h286q55 0 56 -37q0 -33 -35 -47q-4 -2 -18.5 -7t-21.5 -8t-18.5 -9.5t-18.5 -13.5t-11 -17q-20 -33 -21 -113q0 -209 82 -536q78 -326 174 -516q152 188 336 542q242 494 242 584q0 45 -53 72q-4 2 -13.5 6t-13.5 6t-10 6t-8 8t-4.5 11.5t-2.5 15.5 q0 53 68 53h262q49 0 49 -45q0 -31 -39 -57q-41 -27 -53 -45q-23 -29 -72 -148q-213 -500 -397 -782q-182 -279 -246 -356q-2 -2 -19 -25t-27.5 -34t-28 -24.5t-31.5 -13.5q-31 0 -72 88q-205 375 -305 1194q-8 74 -16 105q-8 29 -29 43q-35 33 -37 49z" />
<glyph unicode="W" horiz-adv-x="2007" d="M178 1444q1 55 62 54h280q55 0 55 -44q0 -35 -53 -51q-59 -18 -73 -60q-10 -33 -11 -184q2 -96 33 -491q14 -193 70 -439q164 240 290 533q4 10 53.5 118.5t79 178t60.5 157t31 123.5q0 25 -13.5 40.5t-28 19.5t-27.5 14t-13 31q0 55 65 54h256q59 0 60 -46 q0 -27 -22.5 -41t-48.5 -22.5t-48.5 -46t-22.5 -105.5q14 -291 52 -522q47 -289 118 -488q139 195 275 506q203 485 203 602q0 29 -16.5 44.5t-35 19.5t-35 16t-16.5 33q0 51 64 50h243q49 0 50 -40q0 -20 -62 -67q-31 -23 -41 -41.5t-20 -59.5q-115 -395 -334 -827 q-254 -494 -332 -494q-47 0 -98 176q-150 467 -166 850q-147 -373 -299 -630q-20 -37 -51 -89.5t-79 -128t-90 -127t-63 -51.5q-12 0 -22.5 6.5t-17.5 19.5t-10 22.5t-9 27.5t-6 21q-115 344 -146 917l-12 272q0 10 -1 32t-2 32t-5 25.5t-12.5 26.5t-22.5 22q-35 31 -35 51z " />
<glyph unicode="X" horiz-adv-x="1515" d="M-45 41q0 33 59 55q84 33 219 189l209 235l222 236l-11 12q-111 143 -174 247.5t-141 274.5q-43 88 -86 113q-4 2 -16.5 8t-18.5 10t-12 12.5t-6 18.5q0 47 55 47h311q49 0 49 -41q0 -29 -49 -43t-49 -47q0 -82 99.5 -254t172.5 -242q410 399 410 486q0 35 -48 53.5 t-48 48.5q0 39 59 39h320q61 0 61 -35q0 -18 -11 -27.5t-36 -19.5q-72 -29 -164 -137l-426 -455l-39 -39l11 -10q133 -156 201.5 -263t162.5 -302q16 -37 26.5 -54.5t32 -38t50.5 -32.5q41 -16 41 -41q0 -45 -70 -45h-299q-53 0 -53 39q0 31 49 51.5t49 59.5q0 68 -127 262 t-201 258q-80 -70 -254 -278t-174 -259q0 -25 37 -44t37 -42q0 -47 -76 -47h-299q-55 0 -55 41z" />
<glyph unicode="Y" horiz-adv-x="1515" d="M162 1448q0 51 63 51h293q59 0 60 -39q0 -25 -17.5 -39t-39 -19t-39 -20.5t-17.5 -40.5q0 -55 128 -285.5t206 -346.5q86 59 312 317t226 317q0 25 -12 37.5t-39 22.5q-2 0 -4 2q-39 23 -41 45q0 49 59 49h277q51 0 51 -37q0 -8 -3 -16t-9 -15.5l-10 -12.5t-14.5 -13 t-12.5 -10q-76 -66 -162 -183q-70 -94 -254 -294q-145 -158 -278 -289l-8 -13l-35 -200q-2 -18 -12.5 -76.5t-16.5 -107t-6 -72.5q0 -23 7 -35t16.5 -18.5t29.5 -14.5l25 -8q33 -14 33 -41q0 -43 -56 -43h-356q-47 0 -47 37t53 49q63 16 88 72q27 63 64 311l24 129 q-37 47 -70.5 100.5t-73.5 120t-61 99.5q-66 106 -188 372q-2 6 -7 17.5t-7 15.5t-7.5 13.5t-7.5 12.5t-7 10t-8 10t-9 8t-11.5 8.5t-13.5 6.5t-16 7q-39 16 -39 49z" />
<glyph unicode="Z" horiz-adv-x="1187" d="M-43 53q0 66 107.5 204t209.5 245l613 682q108 151 108 179q0 24 -20 30q-27 10 -178 10l-236 -17q-80 -12 -130 -34.5t-99 -73.5l-17.5 -17.5t-28 -23.5t-22.5 -8q-29 0 -28 31q0 12 14 69l29 109q12 45 26 54q11 7 47 7h17h802h14.5h15.5t12.5 -1t12.5 -4t8 -7t7 -11.5 t2 -17.5q0 -33 -25.5 -86t-73.5 -120.5t-97.5 -131t-118 -143.5t-112.5 -129t-104.5 -114.5t-70.5 -78.5l-303 -336q-123 -156 -123 -186q0 -29 72 -29h151q34 -1 66 -1q123 0 217 18q90 16 151.5 49t137.5 98q25 20 39 21q27 0 26 -23q0 -27 -30.5 -127t-45.5 -123 q-10 -16 -84 -16h-823q-2 0 -28.5 -1t-38 0t-32 6t-28.5 17.5t-8 30.5z" />
<glyph unicode="[" horiz-adv-x="450" d="M-66 -272q1 8 7 57l274 1677q10 70 22.5 79t79.5 9h129q88 0 89 -39q0 -6 -1.5 -12t-4.5 -11t-5 -8t-8 -6.5t-9 -5.5t-11.5 -5t-10.5 -4t-11 -4t-11 -3q-90 -33 -108.5 -60.5t-35.5 -134.5l-204 -1265q-12 -61 -13 -105q0 -27 14.5 -44t25 -22t42.5 -20q2 0 14.5 -4 t18.5 -7t14.5 -8t12.5 -12.5t4 -15.5q0 -27 -20.5 -41t-36 -15t-46.5 -1h-129q-2 0 -17 -1t-23.5 0t-19.5 3t-16.5 9t-5.5 20z" />
<glyph unicode="\" horiz-adv-x="1228" d="M170 1550h145l627 -1550h-141z" />
<glyph unicode="]" horiz-adv-x="450" d="M-66 -264q0 14 5.5 23.5t15.5 16.5t17.5 10t24.5 8t21 7q20 6 35 12.5t27 15.5t19 13t14.5 17.5t11.5 17.5t8 22.5t5 24.5t5 32t7 36l204 1265q12 57 13 103q0 12 -2.5 22.5t-8.5 18.5t-10 14t-15.5 12.5t-16.5 8.5l-20 8l-20 8q-2 2 -12 5t-15 5t-12.5 7.5t-10.5 11.5 t-3 14q0 27 17.5 39t34 14t44.5 2h7h129q2 0 15 1t22.5 0t20.5 -3t17.5 -8t6.5 -16q0 -29 -9 -62l-272 -1677q-10 -68 -22 -78t-80 -10h-129h-13h-17t-16.5 1t-16.5 4t-12 7t-10.5 10.5t-3.5 16.5z" />
<glyph unicode="^" horiz-adv-x="1351" d="M104 365l517 1134h118l523 -1134h-132l-452 983l-445 -983h-129z" />
<glyph unicode="_" horiz-adv-x="1024" d="M0 -160h1024v-100h-1024v100z" />
<glyph unicode="`" horiz-adv-x="573" d="M209 1382q0 14 24 15h37h105q63 0 71.5 -6.5t32.5 -67.5l82 -209q8 -12 8 -20q0 -14 -32 -15q-16 0 -26.5 1t-20 7.5t-13.5 9.5t-16 16t-19 20l-229 237q-4 8 -4 12z" />
<glyph unicode="a" horiz-adv-x="1064" d="M31 365q0 143 66.5 282t190.5 233.5t269 94.5q152 0 227 -113q76 98 129 99q29 0 29 -33q0 -15 -4 -31l-64 -336q-43 -276 -43 -342q0 -37 16.5 -54.5t35 -18.5t35 -9t16.5 -28q0 -33 -82 -79t-119 -46q-49 0 -49 88l12 178q-119 -272 -336 -273q-156 0 -242.5 113 t-86.5 275zM193 371q0 -109 49 -190t149 -81q88 0 157.5 60.5t108.5 151.5t59.5 183.5t20.5 172.5q0 88 -52 142t-138 54q-111 0 -195 -84t-121.5 -193.5t-37.5 -215.5z" />
<glyph unicode="b" horiz-adv-x="1105" d="M92 20q0 7 31 191l33 192l114 730q20 150 21 176q0 43 -38 63.5t-38 44.5q0 10 2 17.5t11.5 15.5t11.5 10t16 10l14 11q107 69 164 69h2q23 0 30 -7t7 -42q0 -68 -43 -307l-65 -375l-9 -33q133 190 334 191q170 0 262 -110.5t92 -282.5q0 -233 -163.5 -420t-391.5 -187 q-168 0 -239 113q-84 -106 -125 -106q-33 0 -33 36zM293 307q0 -100 55 -162.5t156 -62.5q166 0 268 148.5t102 324.5q0 127 -53 212t-172 85q-115 0 -201 -96.5t-120.5 -216t-34.5 -232.5z" />
<glyph unicode="c" horiz-adv-x="942" d="M33 354q0 233 168 427t399 194q55 0 115.5 -17.5t111 -59.5t50.5 -99q0 -41 -27 -69t-66 -28q-52 1 -75 62q-39 104 -131 104q-137 0 -250 -143q-55 -72 -89 -174t-34 -195q0 -123 62.5 -194.5t181.5 -71.5q86 0 158.5 41t115.5 82t59 41q37 0 37 -39q0 -29 -40 -70 t-72 -63q-154 -104 -301 -105q-166 0 -269.5 105.5t-103.5 271.5z" />
<glyph unicode="d" horiz-adv-x="1187" d="M37 377q0 221 173 410.5t392 189.5q102 0 175 -45t91 -137l21 209q45 256 45 292.5t-15.5 56t-33 24.5t-32.5 13.5t-15 24.5q0 41 95 88t142 47t47 -45q0 -31 -16 -112l-158 -938q-26 -179 -26 -216q0 -46 18 -66.5t41 -23t41 -11.5t18 -32q0 -29 -93 -75.5t-132 -46.5 q-43 0 -43 63q0 82 29 242q-152 -311 -393 -312q-166 0 -268.5 115t-102.5 285zM213 387q0 -135 63 -215q66 -78 164 -78q160 0 271 185q41 74 70.5 182t29.5 190q0 98 -53 156.5t-150 58.5q-176 0 -285.5 -148.5t-109.5 -330.5z" />
<glyph unicode="e" horiz-adv-x="1024" d="M31 369q0 236 191.5 421t426.5 185q143 0 228 -60q81 -60 81 -145q0 -106 -89 -181t-207 -118q-145 -49 -459 -80q-2 -19 -2 -37q1 -117 69 -180q78 -72 226 -72q76 0 146.5 25t110.5 55.5t75.5 55t50.5 24.5q37 0 36 -33q0 -49 -116 -129q-178 -123 -373 -123 q-176 0 -285.5 108t-109.5 284zM209 485q61 0 153.5 16.5t193.5 46.5t170 85q67 53 67 119q-1 63 -51 98q-48 33 -107 33q-143 0 -269 -123t-157 -275z" />
<glyph unicode="f" horiz-adv-x="737" d="M-90 -326q0 37 27.5 62.5t64.5 25.5q23 0 45.5 -10t32.5 -10q43 0 82 111q41 123 88 423l90 574h-102q-27 0 -38.5 6t-11.5 31q0 20 5.5 34.5t10.5 21.5t19.5 10t21.5 4t29.5 0t30.5 -1h51l6 35q59 285 117 385q43 72 107.5 123t136.5 51q45 0 81 -22.5t36 -65.5 q0 -33 -19.5 -57.5t-52.5 -24.5q-27 0 -48.5 16.5t-31.5 16.5q-109 0 -174 -438l-4 -19h162q41 0 41 -38q0 -33 -17.5 -48.5t-34 -17.5t-51.5 -2h-112l-76 -475q-51 -348 -109 -484q-47 -115 -131 -200.5t-192 -85.5q-80 0 -80 69z" />
<glyph unicode="g" horiz-adv-x="1064" d="M-31 -266q0 45 46 103.5t87 58.5q27 0 27 -23q0 -8 -8 -29.5t-8 -33.5q0 -57 90 -83t172 -26q147 0 237 45q115 55 115 154q0 76 -58.5 116.5t-142.5 49.5q-61 -18 -125 -19q-145 0 -241.5 101.5t-96.5 250.5q0 223 146.5 399.5t365.5 176.5q43 0 131.5 -9.5t131.5 -9.5 l143 7q72 0 72 -52q0 -71 -104 -71h-3l-131 6q123 -80 123 -273q0 -123 -72.5 -253t-179.5 -187q82 -23 139.5 -84t57.5 -141q0 -76 -46 -141.5t-116 -104.5q-145 -80 -359 -80q-43 0 -100 6t-128 20.5t-118 47.5t-47 78zM227 412q0 -111 53.5 -184.5t159.5 -73.5 q113 0 193 78.5t112.5 182t32.5 214.5q0 109 -58 183.5t-165 74.5q-104 0 -183 -82t-112 -186.5t-33 -206.5z" />
<glyph unicode="h" horiz-adv-x="1187" d="M102 26.5q0 10.5 4 34.5l158 910l17 104q30 184 30 240q0 30 -13 45.5t-30.5 18.5t-31 12.5t-13.5 25.5q0 37 92.5 85t137.5 48q20 0 35.5 -13t15.5 -34q0 -12 -4 -37l-33 -180l-105 -586q78 137 166 209t224 72q123 0 198.5 -71.5t75.5 -194.5q0 -39 -18 -154l-41 -244 q-16 -121 -17 -133q0 -29 11.5 -39t39.5 -14q37 -8 37 -29q0 -37 -88 -77.5t-129 -40.5q-45 0 -45 92q0 49 47 319l19 115q24 128 24 176q0 186 -161 186q-203 0 -328 -327q-61 -158 -115 -506q-2 -16 -6 -24.5t-13.5 -12.5t-15.5 -4t-22.5 1t-24.5 1q-4 0 -17 -1t-21.5 -1 t-18.5 2t-15.5 9t-5.5 17.5z" />
<glyph unicode="i" horiz-adv-x="573" d="M129 850q0 27 49 55q139 70 176 70q57 0 58 -66q0 -20 -17 -118l-39 -222l-28 -174q-33 -172 -33 -207q0 -20 9 -31.5t21.5 -15.5t34.5 -6q51 -4 52 -39q0 -37 -84 -74.5t-129 -37.5q-63 0 -64 82q0 45 19 174l57 331q22 139 22 178q0 32 -16 46t-35.5 15t-36 10 t-16.5 30zM248 1208q0 55 35.5 94t89.5 39q37 0 60.5 -29.5t23.5 -68.5q0 -51 -34 -93t-83 -42q-41 0 -66.5 28.5t-25.5 71.5z" />
<glyph unicode="j" horiz-adv-x="532" d="M-100 -346q0 37 30.5 62.5t67.5 25.5q14 0 39.5 -9t36.5 -9q61 0 104 186l88 463l13 84l32 276q0 39 -16 55.5t-36.5 17.5t-37 9t-16.5 31q0 10 7 19t12 13.5t19.5 11.5t16.5 9q129 76 182 76q47 0 47 -55l-6 -66l-86 -588q-57 -328 -123 -448q-47 -88 -127.5 -163 t-160.5 -75q-37 0 -61.5 19.5t-24.5 54.5zM332 1212q0 55 37 95.5t90 40.5q37 0 59.5 -30t22.5 -69q0 -53 -33 -96t-84 -43q-41 0 -66.5 29.5t-25.5 72.5z" />
<glyph unicode="k" horiz-adv-x="1146" d="M117 32q0 7 1 16.5t3 21.5l131 770l27 161q45 285 45 318q0 43 -26 57.5t-51.5 18.5t-25.5 22q0 25 49 51q156 82 189 82q31 0 38 -8t7 -53q0 -10 -29 -182l-164 -844q129 203 254 315q80 72 190.5 134.5t190.5 62.5q47 0 79 -23.5t32 -68.5q0 -35 -21.5 -56.5 t-54.5 -21.5q-18 0 -43 8q-49 16 -78 16q-14 0 -31.5 -5t-32 -10t-34 -17.5t-31.5 -20.5t-32.5 -24.5t-28.5 -22.5t-30 -23.5t-24 -19.5q160 -565 281 -565q10 0 29.5 3t27.5 3q45 0 45 -35q0 -37 -69.5 -72.5t-110.5 -35.5q-16 0 -31.5 5t-27.5 11t-25.5 20.5t-23 23.5 t-21.5 28.5t-19 30t-18.5 33t-14.5 29.5t-13.5 30.5t-12.5 25.5q-84 197 -118 357q-188 -223 -215 -476q-2 -14 -4.5 -34.5t-3.5 -26.5t-4 -17.5t-7 -13.5t-13 -6t-19.5 -4h-28.5h-18.5h-16.5h-13.5t-12.5 2t-8 4t-7 5t-4 8.5t-2 12.5z" />
<glyph unicode="l" d="M147 35q0 29 9 65l163 971q0 4 16.5 103.5t16.5 134.5q0 49 -47 63q-41 16 -41 35q0 43 90 93t140 50q18 0 30.5 -12t12.5 -30.5t-9 -59.5l-92 -528l-98 -588q-16 -86 -16 -135q0 -29 11 -44.5t24.5 -18.5t24.5 -10t11 -24q0 -35 -86 -75.5t-125 -40.5q-35 0 -35 51z" />
<glyph unicode="m" horiz-adv-x="1802" d="M104 37q0 20 15 84l51 285q45 258 45 337q0 31 -13.5 48.5t-30.5 20.5t-30.5 10t-13.5 22q0 31 72.5 81t105.5 50q55 0 55 -144l-16 -172q152 315 397 316q100 0 170 -66t70 -166v-63l-4 -12q63 127 161.5 217t219.5 90q117 0 190.5 -73t73.5 -189q0 -66 -27 -185 l-20 -100q-45 -233 -45 -248q0 -41 44 -51t44 -31q0 -35 -92 -74.5t-131 -39.5q-47 0 -47 73q0 25 65 342l17 84q34 169 34 225q0 71 -34.5 115.5t-100.5 44.5q-104 0 -188 -93t-133.5 -234.5t-75 -264t-35.5 -225.5q-6 -49 -45 -51h-49q-2 0 -15.5 -1t-20.5 0t-18.5 3 t-17.5 7t-6 15.5t6 41t6 34.5l49 234q53 248 54 371q0 68 -38 115.5t-104 47.5q-156 0 -286 -252q-88 -176 -123 -426l-17 -122q-2 -12 -3 -20.5t-3 -15.5t-5 -12.5t-4 -8.5t-7 -5t-8 -4t-10.5 -2h-12.5h-17.5h-19.5q-4 0 -20.5 -1t-22.5 0t-16 4t-14.5 11.5t-4.5 22.5z" />
<glyph unicode="n" horiz-adv-x="1228" d="M113 23q0 2 6 32l12 54l82 436q20 111 20 170q0 45 -9 64.5t-46 35.5q-4 2 -12 5t-12 5t-10.5 6.5t-9.5 9.5t-3 11q0 25 80 74t104 49q33 0 47.5 -44t14.5 -85q0 -86 -35 -195q63 139 173 231.5t249 92.5q117 0 196.5 -70.5t79.5 -185.5v-5q0 -70 -26 -206l-35 -184 q-18 -100 -18 -140q0 -45 44 -54t44 -30q0 -39 -85 -77.5t-128 -38.5q-53 0 -54 79q0 31 10.5 93.5t27 145.5t20.5 104l18 102q27 139 27 194q0 76 -44 122t-120 46q-109 0 -194 -93t-130 -214q-86 -233 -116 -506q-2 -16 -6.5 -27.5t-7.5 -17.5t-13 -9t-15.5 -4t-23.5 0 t-27 1q-2 0 -13 -1t-20.5 -1t-19.5 2t-16 7t-6 16z" />
<glyph unicode="o" horiz-adv-x="1146" d="M37 391q0 231 175 407.5t404 176.5q195 0 320 -116t125 -308q0 -231 -179.5 -402.5t-412.5 -171.5q-180 0 -306 118t-126 296zM215 373q0 -133 70.5 -214t201.5 -81q174 0 286 155.5t112 337.5q0 127 -68.5 216.5t-193.5 89.5q-188 0 -298 -154t-110 -350z" />
<glyph unicode="p" horiz-adv-x="1187" d="M-34.5 -320q14.5 11 42.5 21q51 18 64 70l49 270l49 295l33 221q18 125 18 172q0 35 -18.5 52.5t-39 19.5t-39 12t-18.5 30.5t48 47.5q145 84 188 84q41 0 41 -74q0 -111 -29 -225q119 299 381 299q172 0 270.5 -112.5t98.5 -287.5q0 -137 -74 -275t-202 -230.5 t-267 -92.5q-27 0 -57.5 3.5t-69.5 11.5t-64.5 26.5t-25.5 44.5q0 18 10.5 42t26.5 24q2 0 60.5 -23.5t111.5 -23.5q117 0 204 80t126 188.5t39 220.5q0 123 -59.5 203t-176.5 80q-176 0 -278 -223q-12 -27 -23.5 -54.5t-21 -61.5t-15.5 -56.5t-13 -64.5t-10 -56 t-10.5 -64.5t-9.5 -58.5l-41 -240q-24 -156 -24 -207v-4q0 -29 13 -45t28.5 -20t29 -15.5t13.5 -33.5q0 -45 -58 -45h-250q-65 0 -65 40q0 24 14.5 35z" />
<glyph unicode="q" horiz-adv-x="1146" d="M37 352q0 242 171 432.5t408 190.5q174 0 261 -113q18 37 57 66.5t76 29.5q33 0 32 -28q0 -21 -14 -72l-49 -248l-127 -749q-10 -76 -10 -101q0 -41 35.5 -56t35.5 -42q0 -57 -67 -57h-240q-57 0 -57 41q0 37 57 57q55 23 72 53q12 20 37 140l65 399 q-39 -143 -141 -230.5t-244 -87.5q-160 0 -259 106.5t-99 268.5zM215 381q0 -121 56 -203t171 -82q117 0 207 99.5t130 223.5t40 236q0 94 -56 152.5t-151 58.5q-174 0 -285.5 -152.5t-111.5 -332.5z" />
<glyph unicode="r" horiz-adv-x="819" d="M129 852q0 29 77 76t107 47q80 0 80 -158l-16 -178l-4 -21q41 150 104 228q45 53 110.5 91t127.5 38q98 0 98 -106.5t-68 -106.5q-20 0 -57 23.5t-61 23.5q-74 0 -137.5 -92t-103.5 -227.5t-62.5 -247t-30.5 -189.5q-2 -29 -12 -40t-39 -13h-39h-8q-25 0 -34 1 t-18.5 11.5t-9.5 30.5q0 2 17 109l36 186q51 266 52 364q0 43 -17.5 68t-37 32t-37 19.5t-17.5 30.5z" />
<glyph unicode="s" horiz-adv-x="860" d="M14 209q0 37 22.5 61.5t59.5 24.5q45 0 65 -20.5t38 -69.5q25 -72 51 -92q47 -35 123 -35q84 0 145.5 48t61.5 130q0 47 -47.5 83t-114 61.5t-134 57t-114.5 90t-47 140.5q0 129 108.5 208t241.5 79q141 0 238 -84q61 -53 61 -115q0 -35 -21.5 -57.5t-54.5 -22.5 q-51 0 -75 66q-27 68 -56 88q-41 27 -102 27q-68 0 -122 -43t-54 -109q0 -53 47 -92t114.5 -64.5t136 -55.5t116 -86t47.5 -138q0 -137 -117 -224.5t-260 -87.5q-68 0 -148 25t-144.5 80t-64.5 127z" />
<glyph unicode="t" horiz-adv-x="737" d="M125 889q0 67 76 67h2q49 0 73 9q33 25 72 149l31 84q2 4 6 18.5t6 21.5t7 19.5t10.5 19.5t12.5 15t16 12.5t20 4.5q35 0 35 -41q0 -6 -19 -127l-31 -185h123h13.5h13.5h13t14.5 -1t12.5 -3t11 -4t9 -6t8.5 -9t5.5 -12.5t2 -15.5q0 -55 -70 -55h-172l-90 -543 q-12 -86 -12 -96q0 -55 34 -55q39 0 120 45t95 45q35 0 35 -47q0 -25 -26 -45q-63 -41 -199.5 -105.5t-181.5 -64.5q-27 0 -42.5 21.5t-15.5 49.5q0 23 11 80l116 715h-41q-104 0 -104 39z" />
<glyph unicode="u" horiz-adv-x="1187" d="M121 856q0 35 90 77t129 42q47 0 47 -76q0 -51 -45 -309l-31 -193q-16 -131 -16 -145q0 -68 41 -115t108 -47q98 0 178 80t127.5 205t72 233.5t36.5 208.5q10 111 16.5 121t17.5 15t20.5 5t25.5 -1t20.5 -1t15.5 1t20.5 1t19.5 -2t15 -7t5 -15q0 -12 -4 -29l-49 -291 l-27 -176q-24 -148 -24 -193q0 -42 16.5 -63.5t34.5 -26.5t34.5 -13.5t16.5 -24.5q0 -27 -80 -80t-104 -53q-59 0 -60 151l9 135q-154 -293 -387 -293q-113 0 -192 71t-79 181q0 84 41 320l21 119q12 66 12 98q0 27 -14.5 40t-31.5 14t-31.5 9.5t-14.5 26.5z" />
<glyph unicode="v" horiz-adv-x="983" d="M121 856q0 37 91 78t138 41q49 0 49 -70q0 -37 -11 -101.5t-28.5 -144t-21.5 -108.5q-43 -219 -43 -311q0 -68 39 -114t104 -46q139 0 254 194q100 168 101 357q0 55 -16.5 91t-36 49t-36 38t-16.5 59q0 43 30 75t73 32q53 0 84.5 -51.5t39 -101.5t7.5 -105 q0 -256 -123 -465q-72 -119 -173.5 -197t-224.5 -78q-115 0 -192.5 67t-77.5 179q0 49 49 332l17 88q18 117 18 133q0 23 -14.5 34t-32.5 13t-32.5 9.5t-14.5 23.5z" />
<glyph unicode="w" horiz-adv-x="1474" d="M121 858q0 35 80 76t123 41q59 0 59 -82q0 -63 -37 -248l-12 -65l-15 -86q-26 -147 -26 -241v-7q0 -66 28.5 -112t90.5 -46q74 0 136 69.5t103 155.5q76 158 111 408l22 164q0 4 2 19.5t3.5 18.5t4.5 13t8 12t14 5t22 3h34h15.5h16.5t15.5 -1t14.5 -5t8 -11t4 -17 q0 -4 -1 -14.5t-1 -14.5q-80 -403 -80 -617q0 -72 30 -129t95 -57q102 0 193 174q88 172 88 365q0 76 -43 129t-43 98q0 43 24.5 81t65.5 38q61 0 85.5 -83t24.5 -163q0 -96 -25.5 -219t-74.5 -245t-136 -205t-194 -83q-109 0 -166 82t-57 193l8 92q-45 -143 -139 -255 t-223 -112q-109 0 -175.5 78t-66.5 189l8 102l43 281q14 104 15 135q0 29 -10.5 43t-38.5 26q-2 0 -11.5 3.5t-11.5 5.5t-5 6t-3 12z" />
<glyph unicode="x" horiz-adv-x="1105" d="M-18 72q0 35 22.5 59.5t56.5 24.5q14 0 39 -5.5t35 -5.5q8 0 17.5 3.5t17.5 7.5t17.5 12t15.5 15t15 18.5t14.5 18.5t13.5 19.5t11 17.5t11 16.5t8 13.5l123 178l9 14l-103 187q-51 100 -78 133q-19 22 -61 22h-4q-55 0 -56 35q0 33 78 72t121 45q16 2 37 -21 q6 -8 16.5 -29.5t22.5 -47t14 -31.5l117 -228q0 2 31.5 45.5t39 53.5t38 51t46 54.5t45 46t52 46t51.5 31t57.5 24.5t57.5 7q49 0 89 -24.5t40 -71.5q0 -31 -22.5 -49.5t-53.5 -18.5q-20 0 -51 13.5t-49 13.5q-109 -1 -320 -314l178 -305q23 -31 29 -39t25.5 -27.5t37 -24.5 t41.5 -5q10 0 30 2t30 2q43 0 43 -37q0 -8 -3 -14t-6 -11.5t-11.5 -11.5t-12.5 -9t-13 -8t-11 -7q-86 -51 -134 -52q-41 0 -65.5 19.5t-56.5 64.5l-187 295l-16 29l-203 -291q-94 -117 -180 -117q-43 0 -69.5 26t-26.5 69z" />
<glyph unicode="y" horiz-adv-x="1024" d="M33 -305q0 39 28.5 62.5t67.5 23.5q23 0 52.5 -11.5t47.5 -11.5q63 0 169 95.5t163 175.5q-66 -45 -115 -45q-133 0 -208 157q-66 132 -66 355l14 276q0 29 -7 40t-32 19q-45 10 -45 35q0 33 93.5 71t138.5 38t45 -49q0 -33 -10 -74q-35 -195 -35 -317q0 -57 7 -120 t24.5 -140.5t58.5 -128t98 -50.5q100 0 203 217q39 76 74 183.5t35 177.5q0 51 -37 100t-37 86q0 43 27.5 79t70.5 36q59 0 83 -55.5t24 -120.5q0 -160 -76 -364t-178 -363q-98 -154 -269.5 -310.5t-302.5 -156.5q-45 0 -75.5 23.5t-30.5 66.5z" />
<glyph unicode="z" horiz-adv-x="942" d="M-12 47q0 117 377 494l313 321h-272q-45 0 -86 -16.5t-41 -54.5q0 -8 2 -23.5t2 -24.5q0 -33 -22.5 -54t-55.5 -21q-43 0 -68.5 31.5t-25.5 74.5q0 84 73 137q63 45 213 45h324q4 0 20.5 1t27.5 0t28.5 -2t30 -4t24.5 -8t18.5 -15t6.5 -23q0 -76 -197 -264l-100 -100 q-100 -96 -149.5 -144.5t-124.5 -135.5t-124 -167q6 0 54 -1q24 0 44 -0.5t36 0.5q30 1 83.5 3t89 8.5t72.5 16.5t55.5 27.5t18.5 39.5q0 8 -5 31t-5 31q0 33 29.5 55.5t64.5 22.5q37 0 61.5 -27t24.5 -63q0 -100 -88 -170q-84 -68 -244 -68h-432q-53 0 -53 47z" />
<glyph unicode="{" d="M98 653q55 6 115 49q31 23 50.5 56t24.5 54.5t13 72.5l59 352q31 180 106 251t249 62q-94 -25 -139.5 -82t-61.5 -155l-61 -373q-20 -125 -68.5 -193.5t-161.5 -93.5q102 -25 129.5 -88t7.5 -180l-65 -401q-16 -100 9.5 -154.5t111.5 -85.5q-152 -4 -215 55 q-70 55 -41 226l65 397q10 43 8 82t-24 76q-37 57 -111 73z" />
<glyph unicode="|" horiz-adv-x="1351" d="M618 0v1550h130v-1550h-130z" />
<glyph unicode="}" d="M-51 -256q98 31 141 84t62 156l65 399q20 119 68.5 182.5t158.5 87.5q-106 25 -130.5 92.5t-4.5 194.5l62 373q16 98 -11.5 154.5t-111.5 82.5q176 8 229 -62.5t23 -250.5l-60 -352q-14 -51 -10 -101.5t41 -81.5q39 -43 98 -49q-82 -16 -135 -73q-27 -25 -41 -53.5 t-18 -45t-10 -59.5l-66 -397q-29 -170 -115 -226q-88 -59 -235 -55z" />
<glyph unicode="~" horiz-adv-x="1351" d="M113 449q72 111 144.5 169t180.5 58q86 0 268.5 -73t239.5 -73q49 0 91 25t64.5 51.5t55.5 75.5l98 -61q-51 -70 -82.5 -108t-92 -72.5t-130.5 -34.5q-74 0 -207 51l-112 41q-145 55 -195 55q-53 0 -98 -26.5t-69.5 -57.5t-59.5 -84z" />
<glyph unicode="&#xa0;" d="M0 0z" />
<glyph unicode="&#xa1;" d="M104 -328q0 16 7.5 52t17.5 77.5t12 55.5l174 788q2 4 5.5 22.5t7.5 30t10 26.5t16.5 22.5t22.5 7.5q45 0 45 -45l-6 -68l-33 -324l-45 -538q-4 -45 -8 -70.5t-17.5 -59.5t-41 -50.5t-68.5 -16.5q-43 0 -71 23.5t-28 66.5zM322 1001q0 53 34.5 92.5t87.5 39.5 q41 0 66 -28t25 -69q0 -55 -36 -92t-91 -37q-37 0 -61.5 28t-24.5 66z" />
<glyph unicode="&#xa2;" horiz-adv-x="1228" d="M207 662q0 227 166 409t391 197l24 153q0 4 3.5 29t6.5 32t10 22.5t19.5 20.5t31 5t26.5 -1t15 -8.5t7 -23.5q0 -2 -1 -8t-1 -8l-6 -35l-31 -178q86 -16 160 -62.5t74 -118.5q0 -39 -31 -64.5t-72 -25.5q-33 0 -48 13.5t-31 46.5q-47 96 -160 96q-160 0 -268.5 -162 t-108.5 -332q0 -125 68.5 -197.5t193.5 -72.5q80 0 146.5 25.5t102.5 57.5t66.5 57.5t47 25.5t28 -12.5t11.5 -28.5q0 -63 -133.5 -146.5t-211.5 -91.5l-24 -149q-2 -6 -3 -19.5t-2 -18.5t-4 -15.5t-7.5 -13.5t-10.5 -8t-15 -7t-22 -2q-49 0 -49 31q0 18 4 39l29 163 q-168 4 -279.5 111t-111.5 275z" />
<glyph unicode="&#xa3;" horiz-adv-x="1228" d="M57 28.5q0 18.5 37 55.5q117 102 162 225q49 139 49 307v48h-43q-6 0 -19.5 -1t-21.5 -1t-18 2t-15.5 8t-5.5 18q0 14 1 24.5t5.5 17.5t6.5 11.5t12 5.5t14 1h19.5h21.5h41l-8 239q-8 236 88 371q57 82 156.5 126t205.5 44q127 0 230.5 -63.5t103.5 -182.5 q0 -41 -20.5 -69.5t-59.5 -28.5q-72 0 -71 76v49q0 63 -54.5 97t-119.5 34q-147 0 -230 -105q-63 -82 -63 -262v-110l8 -215h301q2 0 13.5 1t20.5 1t18 -2t15.5 -7.5t6.5 -13.5q0 -41 -19 -59q-6 -6 -61 -6h-295q12 -326 -258 -558l14 7q184 63 248 63q66 0 256 -49 q78 -18 109 -18q43 0 71.5 27.5t47 54t36.5 26.5q33 0 33 -33q0 -41 -76 -123q-45 -49 -83 -70.5t-91 -21.5q-59 0 -204.5 40t-227.5 40q-88 0 -186 -55q-49 -25 -56 -25q-16 0 -30.5 20.5t-14.5 39z" />
<glyph unicode="&#xa4;" horiz-adv-x="1228" d="M45 1245q0 23 20.5 42.5t43.5 19.5q25 0 88 -68t71 -74q129 127 338 127q184 1 336 -112l98 100q43 43 66 43q20 0 40.5 -20.5t20.5 -43t-24 -42.5l-117 -119q72 -100 99.5 -173t27.5 -186q0 -182 -109 -315l101 -100q41 -37 41 -62q0 -23 -22.5 -46t-45.5 -23 q-25 0 -63 43l-101 98q-158 -119 -336 -119t-331 115l-109 -109q-4 -4 -11 -10t-12 -11t-11.5 -10.5t-13.5 -7.5t-15 -2q-20 0 -41 20.5t-21 41.5q0 23 41 63l109 109q-125 150 -125 358q0 186 108 309l-100 101q-4 4 -13.5 13t-14.5 15.5t-9 15.5t-4 19zM227 750 q0 -160 115 -271.5t274.5 -111.5t271 113.5t111.5 273.5q0 162 -115.5 273.5t-277.5 111.5q-158 0 -268.5 -116t-110.5 -273z" />
<glyph unicode="&#xa5;" horiz-adv-x="1228" d="M4 1450q0 49 66 49h286q66 0 66 -37q0 -35 -57.5 -59.5t-57.5 -61.5q0 -53 129 -282.5t209 -349.5q131 123 254 254l131 155q150 184 150 228q0 37 -48.5 57t-48.5 49q0 47 74 47h273q41 0 40 -35q0 -31 -53 -73q-70 -61 -149 -166q-152 -193 -402 -453h209h8 q41 -4 43 -29q0 -33 -16 -49t-32.5 -18t-53.5 -2h-254l-49 -56l-14 -81h299q2 0 16 1t19.5 0t15.5 -4.5t14 -10.5t4 -17q0 -33 -13 -47.5t-27.5 -16.5t-51.5 -2h-293l-24 -166l-15 -122q0 -41 54.5 -59.5t54.5 -49.5q0 -43 -62 -43h-354q-41 0 -41 35q0 27 13.5 36t43.5 17 q12 2 23.5 8t21 11.5t16.5 14.5t12 15t10.5 19.5t8.5 19.5t6 22.5t4 21.5t5 23.5t4 22.5l31 174h-312h-16h-17t-14.5 2t-13.5 5.5t-8 11.5t-4 18q0 37 19.5 49.5t58.5 10.5h45h280l8 61l-49 76h-235q-66 0 -80 6q-16 6 -17 37q0 59 66 55h203q-190 330 -275 512 q-37 74 -53 90q-10 12 -47 25q-37 16 -37 51z" />
<glyph unicode="&#xa6;" horiz-adv-x="1351" d="M610 0v582h129v-582h-129zM610 969v581h129v-581h-129z" />
<glyph unicode="&#xa7;" horiz-adv-x="1146" d="M14 -43q0 31 1 45t13.5 31.5t39.5 17.5q33 0 47 -84q45 -254 266 -254q127 0 225 68q139 100 139 227q1 158 -235 230l-158 47q-131 39 -186 84q-39 35 -64.5 90t-25.5 108q0 182 231 353q-68 96 -67 188q0 168 157 297q150 125 348 125q154 0 299 -84q16 -10 26.5 -19.5 t17 -14.5t8.5 -18.5t3 -19.5t0 -27.5t-1 -31.5v-92q0 -31 -1 -44.5t-14.5 -29.5t-38 -16t-32.5 36q-74 260 -281 261q-117 0 -226.5 -71t-109.5 -181q0 -137 238 -211l123 -39q74 -23 114.5 -40.5t91 -49t74 -80.5t23.5 -117q0 -156 -209 -369q63 -106 63 -188 q0 -88 -48 -177t-122 -157q-164 -145 -385 -145q-137 0 -256 65q-59 35 -67 66q-20 78 -21 221zM246 639q0 -82 58.5 -126t156.5 -71l137 -41q123 -35 184 -75q6 10 29 39.5t33 45t24.5 42t20.5 51t6 51.5q0 82 -46 125t-136 70l-201 59q-92 27 -139 57q-127 -111 -127 -227 z" />
<glyph unicode="&#xa8;" horiz-adv-x="737" d="M186 1247q0 49 30 90t77 41q84 0 84 -90q0 -53 -28 -96t-77 -43q-41 0 -63.5 28.5t-22.5 69.5zM588 1255q0 49 34.5 86t84.5 37q33 0 53 -27.5t20 -62.5q0 -51 -28.5 -95t-77.5 -44q-43 0 -64.5 30.5t-21.5 75.5z" />
<glyph unicode="&#xa9;" horiz-adv-x="1679" d="M57 752q0 322 229.5 550t553 228t553 -228.5t229.5 -549.5q0 -326 -229.5 -554.5t-553 -228.5t-553 228.5t-229.5 554.5zM154 752q0 -287 200.5 -488t485 -201t484.5 201t200 488q0 283 -200 483.5t-484.5 200.5t-485 -200.5t-200.5 -483.5zM399 666q0 227 142.5 401 t363.5 174q133 0 275 -74q29 -18 36 -32.5t7 -47.5v-10q2 -158 -60 -157q-20 0 -32.5 10t-16.5 21.5t-8 31.5q-14 74 -70.5 109.5t-136.5 35.5q-84 0 -149.5 -45t-102.5 -117.5t-56.5 -151.5t-19.5 -157q0 -293 244 -292q68 0 121 26.5t78.5 59t53.5 59.5t50 27 q20 0 36.5 -16.5t16.5 -39.5q0 -57 -94 -129q-123 -104 -270 -104q-184 0 -296 116.5t-112 301.5z" />
<glyph unicode="&#xaa;" horiz-adv-x="819" d="M119 704.5q0 14.5 6 22.5t20.5 11t22.5 4t27.5 0t21.5 -1h477q2 0 20.5 1t24.5 0t19.5 -5t18.5 -12t5 -23q0 -8 -3 -14t-9 -10t-12 -6t-16.5 -3t-15.5 -1h-16.5h-13.5h-479q-2 0 -20.5 -1t-27.5 0t-23.5 4t-20.5 11t-6 22.5zM139 1159q0 143 99.5 257t240.5 114 q78 -1 162 -62l12 13q51 51 78 51q33 0 33 -31q0 -8 -4 -28l-8 -37l-47 -297q0 -2 -4.5 -32t-4.5 -42q0 -23 33 -28t33 -31q0 -10 -4 -18.5t-14.5 -15.5t-14.5 -10.5t-19.5 -10.5t-17.5 -7q-63 -29 -80 -29q-49 0 -49 68l2 41q-49 -55 -94 -82t-106 -27q-102 0 -164 70 t-62 174zM268 1165q0 -61 32 -104t91 -43q84 0 147.5 101.5t63.5 191.5q0 57 -36 92t-93 35q-94 0 -149.5 -87t-55.5 -186z" />
<glyph unicode="&#xab;" horiz-adv-x="737" d="M66 516q0 25 102 162l76 98q2 4 12 18.5t18.5 24.5t19.5 22.5t22.5 18.5t21.5 6q39 0 39 -35q0 -33 -81 -158.5t-81 -158.5q0 -43 25.5 -155.5t25.5 -147.5q0 -45 -39 -45q-10 0 -18 7t-15.5 20.5t-11.5 22.5t-10 24.5t-6 17.5l-35 84l-37 88q0 2 -8 21.5t-14 39t-6 25.5 zM387 514q0 16 39.5 74.5t62.5 87.5l76 100q66 88 94 88q41 0 41 -32.5t-81.5 -159.5t-81.5 -160q0 -41 25.5 -153.5t25.5 -149.5q0 -43 -39 -43q-12 0 -22.5 12t-16.5 24.5t-13.5 31t-9.5 22.5l-34 86l-35 86q-31 61 -31 86z" />
<glyph unicode="&#xac;" horiz-adv-x="1351" d="M152 627v129h1058v-647h-127v518h-931z" />
<glyph unicode="&#xad;" horiz-adv-x="532" d="M37 549q0 25 12 65q6 20 14 24.5t33 4.5h336q41 0 41 -25q0 -59 -20 -79q-16 -12 -86 -13h-295q-35 0 -35 23z" />
<glyph unicode="&#xae;" horiz-adv-x="1679" d="M57 752q0 322 229.5 550t553 228t553 -228.5t229.5 -549.5q0 -326 -229.5 -554.5t-553 -228.5t-553 228.5t-229.5 554.5zM154 752q0 -287 200.5 -488t485 -201t484.5 201t200 488q0 283 -200 483.5t-484.5 200.5t-485 -200.5t-200.5 -483.5zM375 330q0 43 49 61 q20 8 25 15q6 8 11 24t8 36.5t5 27.5l16 102l72 424q0 8 6 46t6 50t-22 17q-47 20 -47 55q0 49 57 49h369q106 0 164 -18q152 -51 151 -197q0 -182 -233 -270q119 -180 149 -332q6 -25 39 -39t33 -49q0 -10 -3 -18.5t-10.5 -13.5t-13.5 -8t-17 -4t-17.5 -1h-18.5h-16h-109 h-12h-14.5h-14.5t-14 2t-12.5 4t-12.5 6t-8 9t-6 12.5t-2 15.5q0 35 36 45t36 31q0 47 -47.5 146t-86.5 151q-4 0 -46 -7.5t-54.5 -11.5t-116.5 -14l-39 -236q0 -4 -1 -16t-1 -18q0 -8 19 -17q49 -14 49 -53q0 -49 -59 -49h-193q-53 0 -53 43zM672 793l26 2q51 6 103.5 16 t125 33.5t118 65.5t45.5 96q0 29 -10.5 49t-34 33.5t-47 20.5t-61.5 10t-63.5 4t-70.5 1q-53 -2 -66.5 -16.5t-23.5 -71.5z" />
<glyph unicode="&#xaf;" d="M154 1229l6 31l6 18q8 16 74 16h358q2 0 15.5 1t20.5 0t16 -3t14.5 -8t5.5 -16.5t-8 -30.5l-5 -18q-9 -17 -75 -17h-357q-2 0 -16 -1t-20.5 0t-16.5 3t-14 8.5t-4 16.5z" />
<glyph unicode="&#xb0;" horiz-adv-x="819" d="M229 1223q-2 125 89.5 216t218.5 91t217 -91t90 -216q0 -127 -90 -217.5t-217 -90.5t-217.5 90.5t-90.5 217.5zM326 1223q0 -88 61.5 -149.5t149.5 -61.5q86 0 148.5 61.5t62.5 149.5q0 86 -62.5 148.5t-150.5 62.5q-86 0 -148.5 -62.5t-60.5 -148.5z" />
<glyph unicode="&#xb1;" horiz-adv-x="1351" d="M168 0v129h1067v-129h-1067zM168 592v129h469v346h129v-346h469v-129h-469v-346h-129v346h-469z" />
<glyph unicode="&#xb2;" horiz-adv-x="737" d="M102 637q0 27 58.5 96.5t93.5 97.5l238 203q152 125 198 193q47 68 47 123q0 57 -42 88.5t-107 31.5q-80 0 -156 -49t-76 -106q0 -20 12.5 -41t12.5 -31q0 -25 -20.5 -40t-47.5 -15q-35 0 -54 20.5t-19 51.5q0 115 121.5 192.5t248.5 77.5q102 0 178 -49t76 -140 q0 -160 -284 -344l-54 -36q-68 -47 -107.5 -78t-90.5 -80t-82 -98l106 -3l199 7q63 2 85.5 11t72.5 48q27 23 51 23q20 0 20 -15q0 -12 -12 -24l-25 -47q-39 -72 -49 -84q-8 -8 -20 -9h-522q-49 0 -50 25z" />
<glyph unicode="&#xb3;" horiz-adv-x="737" d="M102 770q0 86 66 86q20 0 36.5 -12.5t16.5 -30.5q0 -8 -3 -26.5t-3 -28.5q0 -49 59.5 -77t120.5 -28q111 0 183.5 69t72.5 171q0 170 -231 162h-8q-57 0 -58 30q0 6 2 12.5t4 9.5t7.5 6t8.5 4t10 2t10 1t12.5 1t11.5 1q285 31 285 215q0 63 -40 98t-108 35 q-55 0 -113.5 -30.5t-58.5 -77.5q0 -4 2 -15.5t2 -17.5q0 -25 -19.5 -40t-50.5 -15q-29 0 -49 18.5t-20 44.5q0 84 109.5 138.5t209.5 54.5q111 0 188 -47t77 -144q0 -92 -82 -156.5t-189 -82.5v2v-4q100 -6 160.5 -59.5t60.5 -145.5q0 -135 -123.5 -217t-279.5 -82 q-109 0 -194 42t-85 134z" />
<glyph unicode="&#xb4;" horiz-adv-x="573" d="M160 1087q0 12 33 54l163 223q14 20 22.5 24.5t31.5 4.5h41h102q66 0 65 -17q0 -6 -6 -14t-14 -13.5t-18.5 -13.5t-12.5 -10l-317 -238q-18 -14 -39 -14q-51 0 -51 14z" />
<glyph unicode="&#xb5;" horiz-adv-x="1187" d="M18 -395l183 1063q12 66 12 98q0 27 -14.5 40t-31.5 14t-31.5 9.5t-14.5 26.5q0 35 90 77t129 42q47 0 47 -76q0 -51 -45 -309l-31 -193q-16 -131 -16 -145q0 -68 41 -115t108 -47q98 0 178 80t127.5 205t72 233.5t36.5 208.5q10 111 16.5 121t17.5 15t20.5 5t25.5 -1 t20.5 -1t15.5 1t20.5 1t19.5 -2t15 -7t5 -15q0 -13 -4 -29l-49 -291l-27 -176q-25 -154 -24 -196q0 -39 16.5 -60.5t34.5 -26.5t34.5 -13.5t16.5 -24.5q0 -27 -80 -80t-104 -53q-59 0 -60 151l9 131l-4 4q-145 -293 -383 -293q-90 0 -158 46l-72 -418h-162z" />
<glyph unicode="&#xb6;" horiz-adv-x="1392" d="M45 985q0 254 201 401q94 70 199.5 91.5t254.5 21.5h715q29 0 47.5 -17.5t18.5 -47.5q0 -43 -33 -67t-78 -24q-12 1 -121 17l-254 -1532q-2 -12 -8 -52t-13 -74t-13 -50q-20 -47 -76 -47q-27 0 -46.5 13t-19.5 38q0 12 4 36.5t4 31.5l275 1654h-133l-271 -1626 q0 -6 -3 -21.5t-4 -22.5t-4 -21.5t-6 -21.5t-8 -19.5t-11.5 -17.5t-15.5 -11t-19.5 -9t-24.5 -3q-61 0 -61 61q0 27 18 137l117 707q-111 10 -213.5 40t-200.5 83t-157.5 144t-59.5 208zM238 989q0 -84 42 -154.5t111.5 -115.5t146 -71.5t156.5 -35.5l129 777h-75 q-104 0 -191.5 -19.5t-161 -63.5t-115.5 -125t-42 -192z" />
<glyph unicode="&#xb7;" d="M176 479q0 55 36 93t91 38q39 0 62.5 -28.5t23.5 -67.5q0 -53 -35 -92t-88 -39q-41 0 -65.5 27.5t-24.5 68.5z" />
<glyph unicode="&#xb8;" horiz-adv-x="778" d="M68 -264q0 14 11 24.5t25 10.5q6 0 69 -30t126 -30q49 0 91 17.5t42 60.5q0 66 -88 66q-12 0 -41 -5q-16 -4 -24 -4q-31 0 -31 25q0 4 8 35t8 33l12 49l86 -4l-16 -68l55 4q70 0 126.5 -28.5t56.5 -90.5q0 -53 -55.5 -89t-116 -49t-113.5 -13q-59 0 -145 22.5t-86 63.5z " />
<glyph unicode="&#xb9;" horiz-adv-x="737" d="M176 643q0 29 84 37q55 2 83 14.5t44 53.5q14 36 41 198l53 293q14 72 15 115q0 47 -72 47l-96 -2q-43 0 -43 26q0 23 61 29l119 21q53 12 110 49q53 27 60 26q25 0 24 -26q0 -18 -12 -68l-112 -582q-18 -104 -19 -137q0 -23 14.5 -35t28.5 -14t43 -4q80 -8 80 -33 q0 -31 -66 -30h-413q-27 0 -27 22z" />
<glyph unicode="&#xba;" horiz-adv-x="819" d="M119 702q0 10 3 17.5t11 11.5t14.5 6t17.5 3t18 1h18.5h15.5h477h15.5h17.5t15.5 -1t15.5 -3t12 -6t9 -11t3 -18q0 -8 -3 -14t-9 -10t-12 -6t-16.5 -3t-15.5 -1h-15.5h-12.5h-481q-2 0 -20.5 -1t-27.5 0t-23.5 4t-20.5 11t-6 20zM121 1186q0 133 98 237q106 109 268 109 q127 0 212 -73t85 -197q0 -66 -32.5 -135.5t-83.5 -114.5q-102 -94 -262 -94q-127 0 -206 71.5t-79 196.5zM258 1180q0 -76 39 -122t115 -46q109 0 171 76.5t62 187.5q0 72 -44 119t-116 47q-109 0 -170 -84q-57 -80 -57 -178z" />
<glyph unicode="&#xbb;" horiz-adv-x="737" d="M12 198.5q0 32.5 82 159.5t82 160q0 41 -25.5 153.5t-25.5 149.5q0 43 39 43q10 0 18 -7t14.5 -19.5t11.5 -22.5t10 -24.5t5 -16.5l37 -86l35 -86l16 -39q14 -39 15 -47q0 -16 -40 -73.5t-65 -88.5l-74 -100q-4 -4 -18 -23.5t-23.5 -31t-24.5 -22.5t-28 -11 q-41 0 -41 32.5zM334 199q0 33 82 158.5t82 158.5q0 43 -26 155.5t-26 147.5q0 45 39 45q14 0 26.5 -16.5t25.5 -44.5l10 -31l35 -84l34 -88q31 -61 31 -86t-102 -162l-76 -98q-2 -2 -13.5 -18.5t-18.5 -24.5t-19 -21.5t-22.5 -19.5t-20.5 -6q-41 0 -41 35z" />
<glyph unicode="&#xbc;" horiz-adv-x="1843" d="M147 623q0 29 84 36q55 2 83 14.5t44 53.5q14 37 41 199l54 293q14 72 14 114q0 47 -72 47l-96 -2q-43 0 -43 27q0 23 61 29l119 20q53 12 111 49q53 27 59 27q25 0 25 -27q0 -18 -13 -67l-112 -582q-18 -104 -19 -137q0 -23 14.5 -35t29 -14t42.5 -4q80 -8 80 -33 q0 -31 -65 -31h-414q-27 0 -27 23zM438 23q0 12 17 28l28 37l1012 1387q6 8 15.5 22t14.5 21.5t13 16.5t19.5 12t25.5 3q41 0 41 -20.5t-41 -69.5l-1030 -1407q-4 -6 -11 -17t-11.5 -15.5t-11.5 -10.5t-15 -8t-21 -2q-45 0 -45 23zM1087 270q0 55 136 246q70 96 235.5 255 t235.5 159q20 0 34.5 -13.5t14.5 -31.5q0 -21 -6 -35l-97 -543h158q16 -2 17 -24q0 -27 -23 -39q-6 -4 -43 -4h-121l-18 -111q-6 -37 -6 -39q0 -25 36 -35q29 -16 31 -26q0 -29 -51 -29h-205q-35 0 -35 18q0 27 45 35q33 4 45 19q14 16 27 86l16 82h-327l-19 -2 q-20 0 -29.5 1t-23.5 4t-20.5 10t-6.5 17zM1186 303h340l98 512q-262 -193 -434 -504z" />
<glyph unicode="&#xbd;" horiz-adv-x="1843" d="M147 623q0 29 84 36q55 2 83 14.5t44 53.5q14 37 41 199l54 293q14 72 14 114q0 47 -72 47l-96 -2q-43 0 -43 27q0 23 61 29l119 20q53 12 111 49q53 27 59 27q25 0 25 -27q0 -18 -13 -67l-112 -582q-18 -104 -19 -137q0 -23 14.5 -35t29 -14t42.5 -4q80 -8 80 -33 q0 -31 -65 -31h-414q-27 0 -27 23zM438 23q0 12 17 28l28 37l1012 1387q6 8 15.5 22t14.5 21.5t13 16.5t19.5 12t25.5 3q41 0 41 -20.5t-41 -69.5l-1030 -1407q-4 -6 -11 -17t-11.5 -15.5t-11.5 -10.5t-15 -8t-21 -2q-45 0 -45 23zM1139 25q0 27 58 96t93 98l238 203 q152 125 198 192q47 68 48 123q0 57 -42 89t-108 32q-80 0 -155.5 -49t-75.5 -107q0 -20 12 -40.5t12 -30.5q0 -25 -20.5 -40.5t-46.5 -15.5q-35 0 -54.5 20.5t-19.5 51.5q0 115 122 193t249 78q102 0 178 -49.5t76 -139.5q0 -160 -285 -344l-53 -37q-68 -47 -108 -77.5 t-91 -80t-82 -98.5l107 -2l198 6q63 2 86 11.5t72 48.5q27 23 51 22q20 0 21 -14q0 -12 -13 -25l-24 -47q-39 -72 -49 -84q-8 -8 -21 -8h-522q-49 0 -49 25z" />
<glyph unicode="&#xbe;" horiz-adv-x="1843" d="M102 770q0 86 66 86q20 0 36.5 -12.5t16.5 -30.5q0 -8 -3 -26.5t-3 -28.5q0 -49 59.5 -77t120.5 -28q111 0 183.5 69t72.5 171q0 170 -231 162h-8q-57 0 -58 30q0 6 2 12.5t4 9.5t7.5 6t8.5 4t10 2t10 1t12.5 1t11.5 1q285 31 285 215q0 63 -40 98t-108 35 q-55 0 -113.5 -30.5t-58.5 -77.5q0 -4 2 -15.5t2 -17.5q0 -25 -19.5 -40t-50.5 -15q-29 0 -49 18.5t-20 44.5q0 84 109.5 138.5t209.5 54.5q111 0 188 -47t77 -144q0 -92 -82 -156.5t-189 -82.5v2v-4q100 -6 160.5 -59.5t60.5 -145.5q0 -135 -123.5 -217t-279.5 -82 q-109 0 -194 42t-85 134zM467 23q0 12 16 28l29 37l1012 1387q6 8 15 22t14.5 21.5t13.5 16.5t19 12t26 3q41 0 41 -20.5t-41 -69.5l-1030 -1407q-4 -6 -11.5 -17t-11.5 -15.5t-11 -10.5t-15.5 -8t-20.5 -2q-45 0 -45 23zM1116 270q0 55 135 246q70 96 236 255t235 159 q20 0 35 -13.5t15 -31.5q-1 -21 -7 -35l-96 -543h158q16 -2 16 -24q0 -27 -22 -39q-6 -4 -43 -4h-121l-19 -111q-6 -37 -6 -39q0 -25 37 -35q29 -16 31 -26q0 -29 -51 -29h-205q-35 0 -35 18q0 27 45 35q33 4 45 19q14 16 27 86l16 82h-328l-18 -2q-20 0 -29.5 1t-24 4 t-20.5 10t-6 17zM1214 303h340l99 512q-262 -193 -434 -504z" />
<glyph unicode="&#xbf;" horiz-adv-x="860" d="M-14 -92q0 180 161 336q55 51 117 92t110 64.5t134 60.5l14 7t11.5 7t8.5 5t7 7.5t5 7.5t4 8t3 10t3 13.5t5 14.5l17 82q0 4 3 26.5t6 36.5t9 32.5t17.5 28t27.5 9.5q45 0 45 -49q0 -15 -6 -70l-29 -164q-2 -10 -4 -27.5t-3 -24.5t-6 -18.5t-14 -17.5t-26 -12 q-68 -25 -158 -74t-143 -92q-70 -59 -114 -147.5t-44 -178.5q0 -98 71 -155.5t169 -57.5q96 0 168 49q53 37 55 107q0 68 21 90q31 37 86 37q78 0 78 -76q0 -51 -36 -106.5t-83 -90.5q-131 -96 -301 -96q-164 0 -276.5 84t-112.5 242zM573 1004q0 53 35 91t88 38 q41 0 65.5 -27t24.5 -70q0 -55 -35.5 -92t-91.5 -37q-39 0 -62.5 29t-23.5 68z" />
<glyph unicode="&#xc0;" horiz-adv-x="1515" d="M-53 35q0 31 33 53q12 8 20 14.5t15.5 10.5t12.5 11t9 10t8 13.5t7 14.5t9.5 19.5t10.5 23.5q352 762 800 1306q18 18 33 19q16 0 47 -62q186 -397 283 -911l57 -305q18 -94 25 -115q8 -27 41 -45q39 -23 39 -45q0 -47 -72 -47h-287q-51 0 -51 39q0 31 49 51 q29 12 36 15.5t20.5 14.5t16.5 24.5t3 37.5q0 55 -29 199l-26 137h-692q-45 -74 -98.5 -190.5t-53.5 -165.5q0 -27 13.5 -44.5t30.5 -22.5t30.5 -15t13.5 -29q0 -51 -80 -51h-188q-4 0 -20.5 -1t-24.5 0t-19.5 3t-16.5 10t-5 23zM422 625h610q-86 420 -194 651 q-197 -237 -416 -651zM680 1906q0 14 24 15h37h105q63 0 71.5 -6.5t32.5 -67.5l82 -209q8 -12 8 -20q0 -14 -32 -15q-16 0 -26.5 1t-20 7.5t-13.5 9.5t-16 16t-19 20l-229 237q-4 8 -4 12z" />
<glyph unicode="&#xc1;" horiz-adv-x="1515" d="M-53 35q0 31 33 53q12 8 20 14.5t15.5 10.5t12.5 11t9 10t8 13.5t7 14.5t9.5 19.5t10.5 23.5q352 762 800 1306q18 18 33 19q16 0 47 -62q186 -397 283 -911l57 -305q18 -94 25 -115q8 -27 41 -45q39 -23 39 -45q0 -47 -72 -47h-287q-51 0 -51 39q0 31 49 51 q29 12 36 15.5t20.5 14.5t16.5 24.5t3 37.5q0 55 -29 199l-26 137h-692q-45 -74 -98.5 -190.5t-53.5 -165.5q0 -27 13.5 -44.5t30.5 -22.5t30.5 -15t13.5 -29q0 -51 -80 -51h-188q-4 0 -20.5 -1t-24.5 0t-19.5 3t-16.5 10t-5 23zM422 625h610q-86 420 -194 651 q-197 -237 -416 -651zM631 1611q0 12 33 54l163 223q14 20 22.5 24.5t31.5 4.5h41h102q66 0 65 -17q0 -6 -6 -14t-14 -13.5t-18.5 -13.5t-12.5 -10l-317 -238q-18 -14 -39 -14q-51 0 -51 14z" />
<glyph unicode="&#xc2;" horiz-adv-x="1515" d="M-53 35q0 31 33 53q12 8 20 14.5t15.5 10.5t12.5 11t9 10t8 13.5t7 14.5t9.5 19.5t10.5 23.5q352 762 800 1306q18 18 33 19q16 0 47 -62q186 -397 283 -911l57 -305q18 -94 25 -115q8 -27 41 -45q39 -23 39 -45q0 -47 -72 -47h-287q-51 0 -51 39q0 31 49 51 q29 12 36 15.5t20.5 14.5t16.5 24.5t3 37.5q0 55 -29 199l-26 137h-692q-45 -74 -98.5 -190.5t-53.5 -165.5q0 -27 13.5 -44.5t30.5 -22.5t30.5 -15t13.5 -29q0 -51 -80 -51h-188q-4 0 -20.5 -1t-24.5 0t-19.5 3t-16.5 10t-5 23zM422 625h610q-86 420 -194 651 q-197 -237 -416 -651zM574 1628q0 27 61 76l230 188q47 37 57 37q8 0 16.5 -3t14.5 -11.5t10 -13.5t10 -15t8 -14l117 -183q31 -47 31 -59q0 -10 -9.5 -18.5t-19.5 -8.5q-12 0 -67 41l-138 113l-213 -119q-63 -35 -82 -35q-10 0 -18 7.5t-8 17.5z" />
<glyph unicode="&#xc3;" horiz-adv-x="1515" d="M-53 35q0 31 33 53q12 8 20 14.5t15.5 10.5t12.5 11t9 10t8 13.5t7 14.5t9.5 19.5t10.5 23.5q352 762 800 1306q18 18 33 19q16 0 47 -62q186 -397 283 -911l57 -305q18 -94 25 -115q8 -27 41 -45q39 -23 39 -45q0 -47 -72 -47h-287q-51 0 -51 39q0 31 49 51 q29 12 36 15.5t20.5 14.5t16.5 24.5t3 37.5q0 55 -29 199l-26 137h-692q-45 -74 -98.5 -190.5t-53.5 -165.5q0 -27 13.5 -44.5t30.5 -22.5t30.5 -15t13.5 -29q0 -51 -80 -51h-188q-4 0 -20.5 -1t-24.5 0t-19.5 3t-16.5 10t-5 23zM422 625h610q-86 420 -194 651 q-197 -237 -416 -651zM604 1700q0 18 24.5 56t45.5 58q59 63 118 64q41 0 137.5 -31t125.5 -31q35 0 71.5 35t51.5 35q10 0 18 -10.5t8 -20.5q0 -23 -51 -82q-82 -92 -139 -92q-47 0 -141.5 33t-127.5 33q-35 0 -71.5 -35t-50.5 -35q-18 0 -19 23z" />
<glyph unicode="&#xc4;" horiz-adv-x="1515" d="M-53 35q0 31 33 53q12 8 20 14.5t15.5 10.5t12.5 11t9 10t8 13.5t7 14.5t9.5 19.5t10.5 23.5q352 762 800 1306q18 18 33 19q16 0 47 -62q186 -397 283 -911l57 -305q18 -94 25 -115q8 -27 41 -45q39 -23 39 -45q0 -47 -72 -47h-287q-51 0 -51 39q0 31 49 51 q29 12 36 15.5t20.5 14.5t16.5 24.5t3 37.5q0 55 -29 199l-26 137h-692q-45 -74 -98.5 -190.5t-53.5 -165.5q0 -27 13.5 -44.5t30.5 -22.5t30.5 -15t13.5 -29q0 -51 -80 -51h-188q-4 0 -20.5 -1t-24.5 0t-19.5 3t-16.5 10t-5 23zM422 625h610q-86 420 -194 651 q-197 -237 -416 -651zM596 1771q0 49 30 90t77 41q84 0 84 -90q0 -53 -28 -96t-77 -43q-41 0 -63.5 28.5t-22.5 69.5zM998 1779q0 49 34.5 86t84.5 37q33 0 53 -27.5t20 -62.5q0 -51 -28.5 -95t-77.5 -44q-43 0 -64.5 30.5t-21.5 75.5z" />
<glyph unicode="&#xc5;" horiz-adv-x="1515" d="M-53 35q0 31 33 53q12 8 20 14.5t15.5 10.5t12.5 11t9 10t8 13.5t7 14.5t9.5 19.5t10.5 23.5q352 762 800 1306q18 18 33 19q16 0 47 -62q186 -397 283 -911l57 -305q18 -94 25 -115q8 -27 41 -45q39 -23 39 -45q0 -47 -72 -47h-287q-51 0 -51 39q0 31 49 51 q29 12 36 15.5t20.5 14.5t16.5 24.5t3 37.5q0 55 -29 199l-26 137h-692q-45 -74 -98.5 -190.5t-53.5 -165.5q0 -27 13.5 -44.5t30.5 -22.5t30.5 -15t13.5 -29q0 -51 -80 -51h-188q-4 0 -20.5 -1t-24.5 0t-19.5 3t-16.5 10t-5 23zM422 625h610q-86 420 -194 651 q-197 -237 -416 -651zM720 1784q0 82 56.5 138t140.5 56q76 0 129 -58.5t53 -133.5q0 -80 -56 -134.5t-136 -54.5q-76 0 -131.5 55.5t-55.5 131.5zM813 1784q0 -39 27.5 -67t66.5 -28t69.5 27t30.5 65q0 41 -25.5 72t-66.5 31q-43 0 -72.5 -28.5t-29.5 -71.5z" />
<glyph unicode="&#xc6;" horiz-adv-x="1966" d="M-61 31q0 35 38 49q45 16 63.5 36.5t43.5 69.5q143 293 343 597t394 503q57 57 58 90q0 16 -13.5 23.5t-29 10.5t-28.5 14.5t-13 33.5q0 41 45 41h1048q41 0 41 -39q0 -8 -2 -25.5t-2 -27.5l-6 -86q0 -2 -1 -12.5t-1 -13.5t-2 -11t-4 -12t-6 -9.5t-9.5 -7.5t-13.5 -2 q-27 0 -53 41q-27 37 -43.5 51.5t-59.5 26.5q-76 23 -221 23q-201 0 -239 -52q-23 -33 -35 -100l-64 -385h344q59 6 103 41q31 27 53 27q33 0 33 -37q0 -8 -19 -101q0 -2 -2 -11t-3 -13t-3 -13.5t-4 -14.5t-5 -12t-7 -11t-8 -8.5t-10.5 -6.5t-14.5 -2q-20 0 -59 31 q-41 33 -103 25h-311l-45 -260l-31 -269q0 -88 33 -108q31 -18 139 -19q186 0 275 21q49 12 91 32.5t60.5 34t73.5 58.5q29 25 49 24q33 0 33 -24q0 -8 -21 -70l-49 -143q-4 -8 -10 -14.5t-11 -9.5t-15.5 -4t-14.5 -1h-16.5h-16.5h-860q-4 0 -17.5 -1t-19.5 0t-15 4 t-13.5 10t-4.5 20q0 31 31 45q2 0 6 2q61 18 78 51l4 8q10 20 45 223l27 158h-530q-12 -23 -64.5 -113t-91.5 -164.5t-39 -101.5q0 -23 16.5 -36t36 -18t35.5 -16.5t16 -31.5q0 -39 -32 -39h-312q-33 0 -32 31zM465 627h489l39 245l27 177q33 229 33 276q0 25 -15 25 q-23 0 -120 -106.5t-136 -158.5q-166 -195 -317 -458z" />
<glyph unicode="&#xc7;" horiz-adv-x="1474" d="M86 616q0 242 119 453t324.5 336t447.5 125q201 0 385 -107q4 -2 17.5 -10t19.5 -11t18.5 -11.5t19.5 -15.5t14 -16t10 -19.5t3 -20.5q0 -14 -4 -43l-10 -66q0 -2 -1 -16t-2 -21.5l-3 -22.5t-5 -23.5t-6 -21.5t-8.5 -21.5t-12.5 -15.5t-16.5 -11t-19.5 -4q-18 0 -29.5 12 t-14.5 21.5t-7 33.5q-31 143 -104 207q-113 100 -277 100q-305 0 -485 -274q-76 -113 -122 -261.5t-46 -283.5q0 -225 92 -358q57 -82 150.5 -125t199.5 -43q137 0 283.5 73.5t230.5 182.5q33 43 56 43q20 0 39.5 -18.5t19.5 -38.5q0 -47 -69.5 -116t-131.5 -108 q-205 -131 -450 -131q-285 0 -455 181.5t-170 465.5zM416 -264q0 14 11 24.5t25 10.5q6 0 69 -30t126 -30q49 0 91 17.5t42 60.5q0 66 -88 66q-12 0 -41 -5q-16 -4 -24 -4q-31 0 -31 25q0 4 8 35t8 33l12 49l86 -4l-16 -68l55 4q70 0 126.5 -28.5t56.5 -90.5 q0 -53 -55.5 -89t-116 -49t-113.5 -13q-59 0 -145 22.5t-86 63.5z" />
<glyph unicode="&#xc8;" horiz-adv-x="1351" d="M2 39q0 16 8 26.5t17.5 13.5t27.5 9q63 18 88 72q23 53 66 309l102 621q37 207 37 239q0 35 -12 50.5t-43 25.5q-2 2 -11.5 4t-12.5 4t-10 5t-10 6t-6 8.5t-5 10.5t-2 13q0 16 6 25.5t20 13.5t23.5 5t30 0t22.5 -1h926q29 0 43 -13t13 -32.5t-1 -44.5v-29.5t-2 -43 t-6 -40t-14.5 -35t-26.5 -12.5q-20 0 -43 35q-49 68 -152 92q-76 18 -246 19q-231 0 -274 -47q-12 -14 -23.5 -42t-15.5 -48.5t-10 -60.5t-8 -46l-49 -291h417q76 0 140 43q37 23 51 23q31 0 30 -35q0 -20 -12 -88q0 -4 -2 -18.5t-3 -21.5t-4 -19.5t-8 -19.5t-11.5 -15.5 t-15.5 -12.5t-21 -4q-18 0 -52 29q-31 27 -90 33h-436l-47 -273q-35 -223 -35 -297q0 -53 41 -69q35 -16 174 -17l285 13q92 10 144.5 33.5t127.5 84.5q45 41 68 41q31 0 31 -22q0 -31 -64 -201q-10 -29 -23.5 -38t-41.5 -9h-1039q-51 0 -51 39zM598 1906q0 14 24 15h37h105 q63 0 71.5 -6.5t32.5 -67.5l82 -209q8 -12 8 -20q0 -14 -32 -15q-16 0 -26.5 1t-20 7.5t-13.5 9.5t-16 16t-19 20l-229 237q-4 8 -4 12z" />
<glyph unicode="&#xc9;" horiz-adv-x="1351" d="M2 39q0 16 8 26.5t17.5 13.5t27.5 9q63 18 88 72q23 53 66 309l102 621q37 207 37 239q0 35 -12 50.5t-43 25.5q-2 2 -11.5 4t-12.5 4t-10 5t-10 6t-6 8.5t-5 10.5t-2 13q0 16 6 25.5t20 13.5t23.5 5t30 0t22.5 -1h926q29 0 43 -13t13 -32.5t-1 -44.5v-29.5t-2 -43 t-6 -40t-14.5 -35t-26.5 -12.5q-20 0 -43 35q-49 68 -152 92q-76 18 -246 19q-231 0 -274 -47q-12 -14 -23.5 -42t-15.5 -48.5t-10 -60.5t-8 -46l-49 -291h417q76 0 140 43q37 23 51 23q31 0 30 -35q0 -20 -12 -88q0 -4 -2 -18.5t-3 -21.5t-4 -19.5t-8 -19.5t-11.5 -15.5 t-15.5 -12.5t-21 -4q-18 0 -52 29q-31 27 -90 33h-436l-47 -273q-35 -223 -35 -297q0 -53 41 -69q35 -16 174 -17l285 13q92 10 144.5 33.5t127.5 84.5q45 41 68 41q31 0 31 -22q0 -31 -64 -201q-10 -29 -23.5 -38t-41.5 -9h-1039q-51 0 -51 39zM611 1611q0 12 33 54 l163 223q14 20 22.5 24.5t31.5 4.5h41h102q66 0 65 -17q0 -6 -6 -14t-14 -13.5t-18.5 -13.5t-12.5 -10l-317 -238q-18 -14 -39 -14q-51 0 -51 14z" />
<glyph unicode="&#xca;" horiz-adv-x="1351" d="M2 39q0 16 8 26.5t17.5 13.5t27.5 9q63 18 88 72q23 53 66 309l102 621q37 207 37 239q0 35 -12 50.5t-43 25.5q-2 2 -11.5 4t-12.5 4t-10 5t-10 6t-6 8.5t-5 10.5t-2 13q0 16 6 25.5t20 13.5t23.5 5t30 0t22.5 -1h926q29 0 43 -13t13 -32.5t-1 -44.5v-29.5t-2 -43 t-6 -40t-14.5 -35t-26.5 -12.5q-20 0 -43 35q-49 68 -152 92q-76 18 -246 19q-231 0 -274 -47q-12 -14 -23.5 -42t-15.5 -48.5t-10 -60.5t-8 -46l-49 -291h417q76 0 140 43q37 23 51 23q31 0 30 -35q0 -20 -12 -88q0 -4 -2 -18.5t-3 -21.5t-4 -19.5t-8 -19.5t-11.5 -15.5 t-15.5 -12.5t-21 -4q-18 0 -52 29q-31 27 -90 33h-436l-47 -273q-35 -223 -35 -297q0 -53 41 -69q35 -16 174 -17l285 13q92 10 144.5 33.5t127.5 84.5q45 41 68 41q31 0 31 -22q0 -31 -64 -201q-10 -29 -23.5 -38t-41.5 -9h-1039q-51 0 -51 39zM533 1628q0 27 61 76 l230 188q47 37 57 37q8 0 16.5 -3t14.5 -11.5t10 -13.5t10 -15t8 -14l117 -183q31 -47 31 -59q0 -10 -9.5 -18.5t-19.5 -8.5q-12 0 -67 41l-138 113l-213 -119q-63 -35 -82 -35q-10 0 -18 7.5t-8 17.5z" />
<glyph unicode="&#xcb;" horiz-adv-x="1351" d="M2 39q0 16 8 26.5t17.5 13.5t27.5 9q63 18 88 72q23 53 66 309l102 621q37 207 37 239q0 35 -12 50.5t-43 25.5q-2 2 -11.5 4t-12.5 4t-10 5t-10 6t-6 8.5t-5 10.5t-2 13q0 16 6 25.5t20 13.5t23.5 5t30 0t22.5 -1h926q29 0 43 -13t13 -32.5t-1 -44.5v-29.5t-2 -43 t-6 -40t-14.5 -35t-26.5 -12.5q-20 0 -43 35q-49 68 -152 92q-76 18 -246 19q-231 0 -274 -47q-12 -14 -23.5 -42t-15.5 -48.5t-10 -60.5t-8 -46l-49 -291h417q76 0 140 43q37 23 51 23q31 0 30 -35q0 -20 -12 -88q0 -4 -2 -18.5t-3 -21.5t-4 -19.5t-8 -19.5t-11.5 -15.5 t-15.5 -12.5t-21 -4q-18 0 -52 29q-31 27 -90 33h-436l-47 -273q-35 -223 -35 -297q0 -53 41 -69q35 -16 174 -17l285 13q92 10 144.5 33.5t127.5 84.5q45 41 68 41q31 0 31 -22q0 -31 -64 -201q-10 -29 -23.5 -38t-41.5 -9h-1039q-51 0 -51 39zM514 1771q0 49 30 90t77 41 q84 0 84 -90q0 -53 -28 -96t-77 -43q-41 0 -63.5 28.5t-22.5 69.5zM916 1779q0 49 34.5 86t84.5 37q33 0 53 -27.5t20 -62.5q0 -51 -28.5 -95t-77.5 -44q-43 0 -64.5 30.5t-21.5 75.5z" />
<glyph unicode="&#xcc;" d="M4 37q0 16 8 26.5t17.5 14.5t25.5 10q68 18 90 72q18 45 64 309l102 618q37 213 37 242q0 33 -12 48.5t-43 27.5q-4 2 -11.5 4t-11.5 4t-11 5t-10 6t-6 7.5t-5 10.5t-2 12q0 45 55 45h344q47 0 47 -39q0 -37 -53 -49q-66 -18 -88 -72q-21 -51 -66 -309l-102 -620 q-35 -203 -35 -236q0 -59 53 -82l25 -8q33 -14 33 -41q0 -43 -54 -43h-344q-47 0 -47 37zM229 1906q0 14 24 15h37h105q63 0 71.5 -6.5t32.5 -67.5l82 -209q8 -12 8 -20q0 -14 -32 -15q-16 0 -26.5 1t-20 7.5t-13.5 9.5t-16 16t-19 20l-229 237q-4 8 -4 12z" />
<glyph unicode="&#xcd;" d="M4 37q0 16 8 26.5t17.5 14.5t25.5 10q68 18 90 72q18 45 64 309l102 618q37 213 37 242q0 33 -12 48.5t-43 27.5q-4 2 -11.5 4t-11.5 4t-11 5t-10 6t-6 7.5t-5 10.5t-2 12q0 45 55 45h344q47 0 47 -39q0 -37 -53 -49q-66 -18 -88 -72q-21 -51 -66 -309l-102 -620 q-35 -203 -35 -236q0 -59 53 -82l25 -8q33 -14 33 -41q0 -43 -54 -43h-344q-47 0 -47 37zM262 1611q0 12 33 54l163 223q14 20 22.5 24.5t31.5 4.5h41h102q66 0 65 -17q0 -6 -6 -14t-14 -13.5t-18.5 -13.5t-12.5 -10l-317 -238q-18 -14 -39 -14q-51 0 -51 14z" />
<glyph unicode="&#xce;" d="M4 37q0 16 8 26.5t17.5 14.5t25.5 10q68 18 90 72q18 45 64 309l102 618q37 213 37 242q0 33 -12 48.5t-43 27.5q-4 2 -11.5 4t-11.5 4t-11 5t-10 6t-6 7.5t-5 10.5t-2 12q0 45 55 45h344q47 0 47 -39q0 -37 -53 -49q-66 -18 -88 -72q-21 -51 -66 -309l-102 -620 q-35 -203 -35 -236q0 -59 53 -82l25 -8q33 -14 33 -41q0 -43 -54 -43h-344q-47 0 -47 37zM184 1628q0 27 61 76l230 188q47 37 57 37q8 0 16.5 -3t14.5 -11.5t10 -13.5t10 -15t8 -14l117 -183q31 -47 31 -59q0 -10 -9.5 -18.5t-19.5 -8.5q-12 0 -67 41l-138 113l-213 -119 q-63 -35 -82 -35q-10 0 -18 7.5t-8 17.5z" />
<glyph unicode="&#xcf;" d="M4 37q0 16 8 26.5t17.5 14.5t25.5 10q68 18 90 72q18 45 64 309l102 618q37 213 37 242q0 33 -12 48.5t-43 27.5q-4 2 -11.5 4t-11.5 4t-11 5t-10 6t-6 7.5t-5 10.5t-2 12q0 45 55 45h344q47 0 47 -39q0 -37 -53 -49q-66 -18 -88 -72q-21 -51 -66 -309l-102 -620 q-35 -203 -35 -236q0 -59 53 -82l25 -8q33 -14 33 -41q0 -43 -54 -43h-344q-47 0 -47 37zM166 1771q0 49 30 90t77 41q84 0 84 -90q0 -53 -28 -96t-77 -43q-41 0 -63.5 28.5t-22.5 69.5zM568 1779q0 49 34.5 86t84.5 37q33 0 53 -27.5t20 -62.5q0 -51 -28.5 -95t-77.5 -44 q-43 0 -64.5 30.5t-21.5 75.5z" />
<glyph unicode="&#xd0;" horiz-adv-x="1556" d="M2 37q0 39 53 51q45 10 70 41t30 51.5t17 83.5l84 498h-125q-4 0 -24.5 -1t-29.5 0t-23.5 4t-20.5 10t-6 20q0 8 4 20t4 16l10 21q4 8 13.5 13t22.5 6t23.5 2t26.5 0t21 -1h122l48 281l18 127q8 37 8 61q0 20 -7 32.5t-17.5 18t-30.5 13.5q-18 6 -27.5 9t-19.5 14.5 t-10 25.5q0 12 6 21.5t12 14.5t20.5 7t21.5 2h22.5h19.5h508q289 0 482.5 -165t193.5 -449q0 -258 -125 -464t-321.5 -313.5t-420.5 -107.5h-602q-51 0 -51 37zM350 201q0 -57 35 -78q45 -29 176 -29q342 0 552 225.5t210 569.5q0 516 -561 516q-139 0 -191 -35 q-36 -29 -61 -176l-55 -322h217q4 0 22.5 1t28.5 0t24.5 -4t20.5 -10t6 -19q0 -6 -10 -37l-6 -21q-6 -8 -15.5 -13t-23.5 -6t-24.5 -2t-26 0t-21.5 1h-211l-26 -156l-45 -282q0 -2 -7.5 -51.5t-7.5 -71.5z" />
<glyph unicode="&#xd1;" horiz-adv-x="1597" d="M31 27q0 45 65 61q31 8 52.5 28.5t36 58.5t21.5 58.5t15 71.5t10 57l80 486q55 328 56 457q0 14 -2.5 26t-3.5 20.5t-8 15.5t-10 11t-14.5 9.5t-15.5 7.5t-20.5 8t-22.5 8q-43 16 -43 45q0 25 21 33q25 10 151 10h154q16 -12 25 -20q154 -188 385 -557q49 -80 97 -168 t112.5 -213t89.5 -174l114 723q31 190 31 233q0 59 -64 90q-2 2 -10 6t-11 5t-8 6.5t-7 8.5t-4.5 9t-2.5 14q0 37 58 37h260q49 0 49 -26q0 -35 -53 -58q-31 -12 -51.5 -38.5t-33.5 -73t-16.5 -64.5t-11.5 -72l-168 -1081q0 -2 -3 -19.5t-4 -24.5t-5 -20.5t-10 -19.5 t-15.5 -12t-21.5 -6q-29 0 -41 41q-143 336 -340 682q-160 279 -401 606h-3l-155 -1131q0 -41 21.5 -63.5t47 -26.5t47 -15t21.5 -32q0 -45 -63 -45h-345q-33 0 -32 27zM666 1700q0 18 24.5 56t45.5 58q59 63 118 64q41 0 137.5 -31t125.5 -31q35 0 71.5 35t51.5 35 q10 0 18 -10.5t8 -20.5q0 -23 -51 -82q-82 -92 -139 -92q-47 0 -141.5 33t-127.5 33q-35 0 -71.5 -35t-50.5 -35q-18 0 -19 23z" />
<glyph unicode="&#xd2;" horiz-adv-x="1597" d="M84 621q0 166 62.5 333.5t168.5 294.5q233 281 615 281q295 0 465 -177t170 -472q0 -246 -99.5 -452t-291 -333t-439.5 -127q-301 0 -476 174t-175 478zM281 575q0 -219 115.5 -359t330.5 -140q160 0 288 74.5t210 211.5q66 106 102.5 256t36.5 287q0 229 -113.5 372.5 t-337.5 143.5q-156 0 -280.5 -78.5t-199.5 -204.5t-113.5 -271.5t-38.5 -291.5zM721 1906q0 14 24 15h37h105q63 0 71.5 -6.5t32.5 -67.5l82 -209q8 -12 8 -20q0 -14 -32 -15q-16 0 -26.5 1t-20 7.5t-13.5 9.5t-16 16t-19 20l-229 237q-4 8 -4 12z" />
<glyph unicode="&#xd3;" horiz-adv-x="1597" d="M84 621q0 166 62.5 333.5t168.5 294.5q233 281 615 281q295 0 465 -177t170 -472q0 -246 -99.5 -452t-291 -333t-439.5 -127q-301 0 -476 174t-175 478zM281 575q0 -219 115.5 -359t330.5 -140q160 0 288 74.5t210 211.5q66 106 102.5 256t36.5 287q0 229 -113.5 372.5 t-337.5 143.5q-156 0 -280.5 -78.5t-199.5 -204.5t-113.5 -271.5t-38.5 -291.5zM733 1611q0 12 33 54l163 223q14 20 22.5 24.5t31.5 4.5h41h102q66 0 65 -17q0 -6 -6 -14t-14 -13.5t-18.5 -13.5t-12.5 -10l-317 -238q-18 -14 -39 -14q-51 0 -51 14z" />
<glyph unicode="&#xd4;" horiz-adv-x="1597" d="M84 621q0 166 62.5 333.5t168.5 294.5q233 281 615 281q295 0 465 -177t170 -472q0 -246 -99.5 -452t-291 -333t-439.5 -127q-301 0 -476 174t-175 478zM281 575q0 -219 115.5 -359t330.5 -140q160 0 288 74.5t210 211.5q66 106 102.5 256t36.5 287q0 229 -113.5 372.5 t-337.5 143.5q-156 0 -280.5 -78.5t-199.5 -204.5t-113.5 -271.5t-38.5 -291.5zM615 1628q0 27 61 76l230 188q47 37 57 37q8 0 16.5 -3t14.5 -11.5t10 -13.5t10 -15t8 -14l117 -183q31 -47 31 -59q0 -10 -9.5 -18.5t-19.5 -8.5q-12 0 -67 41l-138 113l-213 -119 q-63 -35 -82 -35q-10 0 -18 7.5t-8 17.5z" />
<glyph unicode="&#xd5;" horiz-adv-x="1597" d="M84 621q0 166 62.5 333.5t168.5 294.5q233 281 615 281q295 0 465 -177t170 -472q0 -246 -99.5 -452t-291 -333t-439.5 -127q-301 0 -476 174t-175 478zM281 575q0 -219 115.5 -359t330.5 -140q160 0 288 74.5t210 211.5q66 106 102.5 256t36.5 287q0 229 -113.5 372.5 t-337.5 143.5q-156 0 -280.5 -78.5t-199.5 -204.5t-113.5 -271.5t-38.5 -291.5zM645 1700q0 18 24.5 56t45.5 58q59 63 118 64q41 0 137.5 -31t125.5 -31q35 0 71.5 35t51.5 35q10 0 18 -10.5t8 -20.5q0 -23 -51 -82q-82 -92 -139 -92q-47 0 -141.5 33t-127.5 33 q-35 0 -71.5 -35t-50.5 -35q-18 0 -19 23z" />
<glyph unicode="&#xd6;" horiz-adv-x="1597" d="M84 621q0 166 62.5 333.5t168.5 294.5q233 281 615 281q295 0 465 -177t170 -472q0 -246 -99.5 -452t-291 -333t-439.5 -127q-301 0 -476 174t-175 478zM281 575q0 -219 115.5 -359t330.5 -140q160 0 288 74.5t210 211.5q66 106 102.5 256t36.5 287q0 229 -113.5 372.5 t-337.5 143.5q-156 0 -280.5 -78.5t-199.5 -204.5t-113.5 -271.5t-38.5 -291.5zM657 1771q0 49 30 90t77 41q84 0 84 -90q0 -53 -28 -96t-77 -43q-41 0 -63.5 28.5t-22.5 69.5zM1059 1779q0 49 34.5 86t84.5 37q33 0 53 -27.5t20 -62.5q0 -51 -28.5 -95t-77.5 -44 q-43 0 -64.5 30.5t-21.5 75.5z" />
<glyph unicode="&#xd7;" horiz-adv-x="1351" d="M143 66l441 440l-441 442l90 92l443 -442l442 442l90 -92l-440 -442l440 -440l-90 -93l-442 443l-443 -443z" />
<glyph unicode="&#xd8;" horiz-adv-x="1597" d="M92 621q0 166 60.5 330.5t169.5 293.5q238 285 608 285q264 0 418 -125l28 33q72 82 92 82q16 0 32 -15.5t16 -31.5q0 -8 -8.5 -21.5t-16.5 -24t-20.5 -22.5t-14.5 -14l-41 -48q158 -164 158 -458q0 -246 -98.5 -453t-290 -335t-439.5 -128q-119 0 -239.5 34t-196.5 101 l-33 -36q-55 -68 -75 -68q-16 0 -31.5 16.5t-15.5 30.5q0 10 11 25.5t30 33.5l18 21l35 37q-156 178 -156 457zM287 592q-1 -196 69 -309l887 1015q-111 125 -317 125q-313 0 -488 -288q-152 -250 -151 -543zM412 207q125 -133 325 -133q152 0 283 74.5t207 205.5 q145 246 145 541q0 201 -72 326z" />
<glyph unicode="&#xd9;" horiz-adv-x="1556" d="M129 373q0 164 88 557q84 354 84 399q0 37 -22.5 52.5t-45 26.5t-22.5 38q0 53 74 53h305q63 0 63 -41q0 -39 -55 -59q-31 -12 -41 -17.5t-25.5 -19.5t-25.5 -37q-35 -69 -78 -262l-66 -299q-49 -242 -49 -358q0 -164 115 -247t285 -83q129 0 243.5 51t184.5 149 q41 61 72.5 153.5t44 156t28.5 170.5l51 514v10q0 35 -2 51.5t-14 35.5t-39 32q-2 0 -11 4t-11.5 5t-10.5 5t-11 7t-7 8.5t-6 11.5t-2 12q0 47 61 47h285q53 0 53 -41q0 -33 -49 -51q-47 -20 -64.5 -37.5t-25.5 -64.5l-19 -150l-24 -203q-51 -496 -142 -665 q-82 -160 -242.5 -239t-353.5 -79q-98 0 -194 21.5t-184 66.5t-141.5 127t-53.5 189zM701 1906q0 14 24 15h37h105q63 0 71.5 -6.5t32.5 -67.5l82 -209q8 -12 8 -20q0 -14 -32 -15q-16 0 -26.5 1t-20 7.5t-13.5 9.5t-16 16t-19 20l-229 237q-4 8 -4 12z" />
<glyph unicode="&#xda;" horiz-adv-x="1556" d="M129 373q0 164 88 557q84 354 84 399q0 37 -22.5 52.5t-45 26.5t-22.5 38q0 53 74 53h305q63 0 63 -41q0 -39 -55 -59q-31 -12 -41 -17.5t-25.5 -19.5t-25.5 -37q-35 -69 -78 -262l-66 -299q-49 -242 -49 -358q0 -164 115 -247t285 -83q129 0 243.5 51t184.5 149 q41 61 72.5 153.5t44 156t28.5 170.5l51 514v10q0 35 -2 51.5t-14 35.5t-39 32q-2 0 -11 4t-11.5 5t-10.5 5t-11 7t-7 8.5t-6 11.5t-2 12q0 47 61 47h285q53 0 53 -41q0 -33 -49 -51q-47 -20 -64.5 -37.5t-25.5 -64.5l-19 -150l-24 -203q-51 -496 -142 -665 q-82 -160 -242.5 -239t-353.5 -79q-98 0 -194 21.5t-184 66.5t-141.5 127t-53.5 189zM733 1611q0 12 33 54l163 223q14 20 22.5 24.5t31.5 4.5h41h102q66 0 65 -17q0 -6 -6 -14t-14 -13.5t-18.5 -13.5t-12.5 -10l-317 -238q-18 -14 -39 -14q-51 0 -51 14z" />
<glyph unicode="&#xdb;" horiz-adv-x="1556" d="M129 373q0 164 88 557q84 354 84 399q0 37 -22.5 52.5t-45 26.5t-22.5 38q0 53 74 53h305q63 0 63 -41q0 -39 -55 -59q-31 -12 -41 -17.5t-25.5 -19.5t-25.5 -37q-35 -69 -78 -262l-66 -299q-49 -242 -49 -358q0 -164 115 -247t285 -83q129 0 243.5 51t184.5 149 q41 61 72.5 153.5t44 156t28.5 170.5l51 514v10q0 35 -2 51.5t-14 35.5t-39 32q-2 0 -11 4t-11.5 5t-10.5 5t-11 7t-7 8.5t-6 11.5t-2 12q0 47 61 47h285q53 0 53 -41q0 -33 -49 -51q-47 -20 -64.5 -37.5t-25.5 -64.5l-19 -150l-24 -203q-51 -496 -142 -665 q-82 -160 -242.5 -239t-353.5 -79q-98 0 -194 21.5t-184 66.5t-141.5 127t-53.5 189zM635 1628q0 27 61 76l230 188q47 37 57 37q8 0 16.5 -3t14.5 -11.5t10 -13.5t10 -15t8 -14l117 -183q31 -47 31 -59q0 -10 -9.5 -18.5t-19.5 -8.5q-12 0 -67 41l-138 113l-213 -119 q-63 -35 -82 -35q-10 0 -18 7.5t-8 17.5z" />
<glyph unicode="&#xdc;" horiz-adv-x="1556" d="M129 373q0 164 88 557q84 354 84 399q0 37 -22.5 52.5t-45 26.5t-22.5 38q0 53 74 53h305q63 0 63 -41q0 -39 -55 -59q-31 -12 -41 -17.5t-25.5 -19.5t-25.5 -37q-35 -69 -78 -262l-66 -299q-49 -242 -49 -358q0 -164 115 -247t285 -83q129 0 243.5 51t184.5 149 q41 61 72.5 153.5t44 156t28.5 170.5l51 514v10q0 35 -2 51.5t-14 35.5t-39 32q-2 0 -11 4t-11.5 5t-10.5 5t-11 7t-7 8.5t-6 11.5t-2 12q0 47 61 47h285q53 0 53 -41q0 -33 -49 -51q-47 -20 -64.5 -37.5t-25.5 -64.5l-19 -150l-24 -203q-51 -496 -142 -665 q-82 -160 -242.5 -239t-353.5 -79q-98 0 -194 21.5t-184 66.5t-141.5 127t-53.5 189zM637 1771q0 49 30 90t77 41q84 0 84 -90q0 -53 -28 -96t-77 -43q-41 0 -63.5 28.5t-22.5 69.5zM1039 1779q0 49 34.5 86t84.5 37q33 0 53 -27.5t20 -62.5q0 -51 -28.5 -95t-77.5 -44 q-43 0 -64.5 30.5t-21.5 75.5z" />
<glyph unicode="&#xdd;" horiz-adv-x="1515" d="M162 1448q0 51 63 51h293q59 0 60 -39q0 -25 -17.5 -39t-39 -19t-39 -20.5t-17.5 -40.5q0 -55 128 -285.5t206 -346.5q86 59 312 317t226 317q0 25 -12 37.5t-39 22.5q-2 0 -4 2q-39 23 -41 45q0 49 59 49h277q51 0 51 -37q0 -8 -3 -16t-9 -15.5l-10 -12.5t-14.5 -13 t-12.5 -10q-76 -66 -162 -183q-70 -94 -254 -294q-145 -158 -278 -289l-8 -13l-35 -200q-2 -18 -12.5 -76.5t-16.5 -107t-6 -72.5q0 -23 7 -35t16.5 -18.5t29.5 -14.5l25 -8q33 -14 33 -41q0 -43 -56 -43h-356q-47 0 -47 37t53 49q63 16 88 72q27 63 64 311l24 129 q-37 47 -70.5 100.5t-73.5 120t-61 99.5q-66 106 -188 372q-2 6 -7 17.5t-7 15.5t-7.5 13.5t-7.5 12.5t-7 10t-8 10t-9 8t-11.5 8.5t-13.5 6.5t-16 7q-39 16 -39 49zM680 1611q0 12 33 54l163 223q14 20 22.5 24.5t31.5 4.5h41h102q66 0 65 -17q0 -6 -6 -14t-14 -13.5 t-18.5 -13.5t-12.5 -10l-317 -238q-18 -14 -39 -14q-51 0 -51 14z" />
<glyph unicode="&#xde;" horiz-adv-x="1310" d="M4 37q0 16 8 26.5t17.5 14.5t25.5 10q68 18 90 72q19 45 64 309l102 618q37 213 37 242q0 33 -12 48.5t-43 27.5q-4 2 -11.5 4t-11.5 4t-11 5t-10 6t-6 7.5t-5 10.5t-2 12q0 45 55 45h344q47 0 47 -39q0 -37 -53 -49q-66 -18 -88 -72q-12 -31 -31 -116h305 q506 0 506 -334q0 -143 -94 -260t-234 -189q-260 -135 -561 -135h-78q-16 -98 -16 -131q0 -59 53 -82l25 -8q33 -14 33 -41q0 -43 -54 -43h-344q-47 0 -47 37zM371 412h53q248 0 438 96q266 139 266 358q0 260 -389 260q-162 0 -217 -43q-12 -10 -22.5 -25.5t-16.5 -30.5 t-12 -39.5t-8 -37t-7 -39t-5 -32.5z" />
<glyph unicode="&#xdf;" horiz-adv-x="1105" d="M-8 37q0 31 55 45q37 10 49 39q10 23 25 127l127 762q16 94 23.5 132t32 104.5t61.5 117.5q123 166 337 166q154 0 246 -84q86 -80 86 -186q0 -74 -30.5 -138.5t-74.5 -109.5t-87 -82t-74 -71t-31 -60q0 -35 56.5 -126t113 -205t56.5 -200q0 -123 -92.5 -207t-215.5 -84 t-215 80q-47 43 -47 82q0 20 12.5 37t30.5 17q20 0 50 -29t73 -56.5t94 -27.5q66 0 108 44t42 112q0 72 -111.5 252t-111.5 247q0 43 30.5 89t73.5 90t86 91.5t73.5 110t30.5 127.5q0 84 -48 136.5t-132 52.5q-39 0 -72.5 -8.5t-59 -30t-45 -39t-35 -54t-26 -58t-20.5 -68 t-13 -65.5t-11.5 -70.5t-10.5 -61.5l-159 -959q-8 -18 -29 -18h-182q-39 0 -39 37z" />
<glyph unicode="&#xe0;" horiz-adv-x="1064" d="M31 365q0 143 66.5 282t190.5 233.5t269 94.5q152 0 227 -113q76 98 129 99q29 0 29 -33q0 -15 -4 -31l-64 -336q-43 -276 -43 -342q0 -37 16.5 -54.5t35 -18.5t35 -9t16.5 -28q0 -33 -82 -79t-119 -46q-49 0 -49 88l12 178q-119 -272 -336 -273q-156 0 -242.5 113 t-86.5 275zM193 371q0 -109 49 -190t149 -81q88 0 157.5 60.5t108.5 151.5t59.5 183.5t20.5 172.5q0 88 -52 142t-138 54q-111 0 -195 -84t-121.5 -193.5t-37.5 -215.5zM414 1382q0 14 24 15h37h105q63 0 71.5 -6.5t32.5 -67.5l82 -209q8 -12 8 -20q0 -14 -32 -15 q-16 0 -26.5 1t-20 7.5t-13.5 9.5t-16 16t-19 20l-229 237q-4 8 -4 12z" />
<glyph unicode="&#xe1;" horiz-adv-x="1064" d="M31 365q0 143 66.5 282t190.5 233.5t269 94.5q152 0 227 -113q76 98 129 99q29 0 29 -33q0 -15 -4 -31l-64 -336q-43 -276 -43 -342q0 -37 16.5 -54.5t35 -18.5t35 -9t16.5 -28q0 -33 -82 -79t-119 -46q-49 0 -49 88l12 178q-119 -272 -336 -273q-156 0 -242.5 113 t-86.5 275zM193 371q0 -109 49 -190t149 -81q88 0 157.5 60.5t108.5 151.5t59.5 183.5t20.5 172.5q0 88 -52 142t-138 54q-111 0 -195 -84t-121.5 -193.5t-37.5 -215.5zM406 1087q0 12 33 54l163 223q14 20 22.5 24.5t31.5 4.5h41h102q66 0 65 -17q0 -6 -6 -14t-14 -13.5 t-18.5 -13.5t-12.5 -10l-317 -238q-18 -14 -39 -14q-51 0 -51 14z" />
<glyph unicode="&#xe2;" horiz-adv-x="1064" d="M31 365q0 143 66.5 282t190.5 233.5t269 94.5q152 0 227 -113q76 98 129 99q29 0 29 -33q0 -15 -4 -31l-64 -336q-43 -276 -43 -342q0 -37 16.5 -54.5t35 -18.5t35 -9t16.5 -28q0 -33 -82 -79t-119 -46q-49 0 -49 88l12 178q-119 -272 -336 -273q-156 0 -242.5 113 t-86.5 275zM193 371q0 -109 49 -190t149 -81q88 0 157.5 60.5t108.5 151.5t59.5 183.5t20.5 172.5q0 88 -52 142t-138 54q-111 0 -195 -84t-121.5 -193.5t-37.5 -215.5zM348 1104q0 27 61 76l230 188q47 37 57 37q8 0 16.5 -3t14.5 -11.5t10 -13.5t10 -15t8 -14l117 -183 q31 -47 31 -59q0 -10 -9.5 -18.5t-19.5 -8.5q-12 0 -67 41l-138 113l-213 -119q-63 -35 -82 -35q-10 0 -18 7.5t-8 17.5z" />
<glyph unicode="&#xe3;" horiz-adv-x="1064" d="M31 365q0 143 66.5 282t190.5 233.5t269 94.5q152 0 227 -113q76 98 129 99q29 0 29 -33q0 -15 -4 -31l-64 -336q-43 -276 -43 -342q0 -37 16.5 -54.5t35 -18.5t35 -9t16.5 -28q0 -33 -82 -79t-119 -46q-49 0 -49 88l12 178q-119 -272 -336 -273q-156 0 -242.5 113 t-86.5 275zM193 371q0 -109 49 -190t149 -81q88 0 157.5 60.5t108.5 151.5t59.5 183.5t20.5 172.5q0 88 -52 142t-138 54q-111 0 -195 -84t-121.5 -193.5t-37.5 -215.5zM338 1176q0 18 24.5 56t45.5 58q59 63 118 64q41 0 137.5 -31t125.5 -31q35 0 71.5 35t51.5 35 q10 0 18 -10.5t8 -20.5q0 -23 -51 -82q-82 -92 -139 -92q-47 0 -141.5 33t-127.5 33q-35 0 -71.5 -35t-50.5 -35q-18 0 -19 23z" />
<glyph unicode="&#xe4;" horiz-adv-x="1064" d="M31 365q0 143 66.5 282t190.5 233.5t269 94.5q152 0 227 -113q76 98 129 99q29 0 29 -33q0 -15 -4 -31l-64 -336q-43 -276 -43 -342q0 -37 16.5 -54.5t35 -18.5t35 -9t16.5 -28q0 -33 -82 -79t-119 -46q-49 0 -49 88l12 178q-119 -272 -336 -273q-156 0 -242.5 113 t-86.5 275zM193 371q0 -109 49 -190t149 -81q88 0 157.5 60.5t108.5 151.5t59.5 183.5t20.5 172.5q0 88 -52 142t-138 54q-111 0 -195 -84t-121.5 -193.5t-37.5 -215.5zM350 1247q0 49 30 90t77 41q84 0 84 -90q0 -53 -28 -96t-77 -43q-41 0 -63.5 28.5t-22.5 69.5z M752 1255q0 49 34.5 86t84.5 37q33 0 53 -27.5t20 -62.5q0 -51 -28.5 -95t-77.5 -44q-43 0 -64.5 30.5t-21.5 75.5z" />
<glyph unicode="&#xe5;" horiz-adv-x="1064" d="M31 365q0 143 66.5 282t190.5 233.5t269 94.5q152 0 227 -113q76 98 129 99q29 0 29 -33q0 -15 -4 -31l-64 -336q-43 -276 -43 -342q0 -37 16.5 -54.5t35 -18.5t35 -9t16.5 -28q0 -33 -82 -79t-119 -46q-49 0 -49 88l12 178q-119 -272 -336 -273q-156 0 -242.5 113 t-86.5 275zM193 371q0 -109 49 -190t149 -81q88 0 157.5 60.5t108.5 151.5t59.5 183.5t20.5 172.5q0 88 -52 142t-138 54q-111 0 -195 -84t-121.5 -193.5t-37.5 -215.5zM454 1260q0 82 56.5 138t140.5 56q76 0 129 -58.5t53 -133.5q0 -80 -56 -134.5t-136 -54.5 q-76 0 -131.5 55.5t-55.5 131.5zM547 1260q0 -39 27.5 -67t66.5 -28t69.5 27t30.5 65q0 41 -25.5 72t-66.5 31q-43 0 -72.5 -28.5t-29.5 -71.5z" />
<glyph unicode="&#xe6;" horiz-adv-x="1679" d="M18 229q0 287 553 353l158 20q8 27 8 66q0 98 -71.5 153.5t-173.5 55.5q-125 0 -195 -74q-4 -4 -11 -13.5t-11.5 -13.5t-11.5 -10t-13 -9t-14.5 -5t-18.5 -2q-31 0 -51.5 17t-20.5 48q0 63 95 111q96 49 260 49q119 0 217 -49t129 -152q68 98 191.5 149.5t254.5 51.5 q127 0 224.5 -56.5t97.5 -173.5q0 -96 -87 -168.5t-218 -109.5t-247 -54.5t-208 -17.5v-55q0 -119 78 -178.5t201 -59.5q104 0 190 38t137 76t68 38q33 0 33 -39t-115 -113q-186 -125 -369 -125q-119 0 -217 58.5t-125 165.5q-162 -223 -416 -224q-125 0 -213 67t-88 185z M186 246q0 -70 49 -113t123 -43q76 0 148 37t115 98q57 82 98 289q-532 -59 -533 -268zM864 498q66 2 153 16t189.5 43t172 80t69.5 117q0 59 -49.5 88.5t-112.5 29.5q-150 0 -272.5 -112.5t-149.5 -261.5z" />
<glyph unicode="&#xe7;" horiz-adv-x="942" d="M33 354q0 233 168 427t399 194q55 0 115.5 -17.5t111 -59.5t50.5 -99q0 -41 -27 -69t-66 -28q-52 1 -75 62q-39 104 -131 104q-137 0 -250 -143q-55 -72 -89 -174t-34 -195q0 -123 62.5 -194.5t181.5 -71.5q86 0 158.5 41t115.5 82t59 41q37 0 37 -39q0 -29 -40 -70 t-72 -63q-154 -104 -301 -105q-166 0 -269.5 105.5t-103.5 271.5zM150 -264q0 14 11 24.5t25 10.5q6 0 69 -30t126 -30q49 0 91 17.5t42 60.5q0 66 -88 66q-12 0 -41 -5q-16 -4 -24 -4q-31 0 -31 25q0 4 8 35t8 33l12 49l86 -4l-16 -68l55 4q70 0 126.5 -28.5t56.5 -90.5 q0 -53 -55.5 -89t-116 -49t-113.5 -13q-59 0 -145 22.5t-86 63.5z" />
<glyph unicode="&#xe8;" horiz-adv-x="1024" d="M31 369q0 236 191.5 421t426.5 185q143 0 228 -60q82 -61 81 -147q0 -104 -89 -179t-207 -118q-145 -49 -459 -80q-12 -145 66.5 -217t226.5 -72q76 0 146.5 25t110.5 55.5t75.5 55t50.5 24.5q37 0 36 -33q0 -49 -116 -129q-178 -123 -373 -123q-176 0 -285.5 108 t-109.5 284zM209 485q61 0 153.5 16.5t193.5 46.5t170 85t67 123q-2 61 -50.5 94t-107.5 33q-143 0 -269 -123t-157 -275zM393 1382q0 14 24 15h37h105q63 0 71.5 -6.5t32.5 -67.5l82 -209q8 -12 8 -20q0 -14 -32 -15q-16 0 -26.5 1t-20 7.5t-13.5 9.5t-16 16t-19 20 l-229 237q-4 8 -4 12z" />
<glyph unicode="&#xe9;" horiz-adv-x="1024" d="M31 369q0 236 191.5 421t426.5 185q143 0 228 -60q82 -61 81 -147q0 -104 -89 -179t-207 -118q-145 -49 -459 -80q-12 -145 66.5 -217t226.5 -72q76 0 146.5 25t110.5 55.5t75.5 55t50.5 24.5q37 0 36 -33q0 -49 -116 -129q-178 -123 -373 -123q-176 0 -285.5 108 t-109.5 284zM209 485q61 0 153.5 16.5t193.5 46.5t170 85t67 123q-2 61 -50.5 94t-107.5 33q-143 0 -269 -123t-157 -275zM385 1087q0 12 33 54l163 223q14 20 22.5 24.5t31.5 4.5h41h102q66 0 65 -17q0 -6 -6 -14t-14 -13.5t-18.5 -13.5t-12.5 -10l-317 -238 q-18 -14 -39 -14q-51 0 -51 14z" />
<glyph unicode="&#xea;" horiz-adv-x="1024" d="M31 369q0 236 191.5 421t426.5 185q143 0 228 -60q82 -61 81 -147q0 -104 -89 -179t-207 -118q-145 -49 -459 -80q-12 -145 66.5 -217t226.5 -72q76 0 146.5 25t110.5 55.5t75.5 55t50.5 24.5q37 0 36 -33q0 -49 -116 -129q-178 -123 -373 -123q-176 0 -285.5 108 t-109.5 284zM209 485q61 0 153.5 16.5t193.5 46.5t170 85t67 123q-2 61 -50.5 94t-107.5 33q-143 0 -269 -123t-157 -275zM297 1104q0 27 61 76l230 188q47 37 57 37q8 0 16.5 -3t14.5 -11.5t10 -13.5t10 -15t8 -14l117 -183q31 -47 31 -59q0 -10 -9.5 -18.5t-19.5 -8.5 q-12 0 -67 41l-138 113l-213 -119q-63 -35 -82 -35q-10 0 -18 7.5t-8 17.5z" />
<glyph unicode="&#xeb;" horiz-adv-x="1024" d="M31 369q0 236 191.5 421t426.5 185q143 0 228 -60q82 -61 81 -147q0 -104 -89 -179t-207 -118q-145 -49 -459 -80q-12 -145 66.5 -217t226.5 -72q76 0 146.5 25t110.5 55.5t75.5 55t50.5 24.5q37 0 36 -33q0 -49 -116 -129q-178 -123 -373 -123q-176 0 -285.5 108 t-109.5 284zM209 485q61 0 153.5 16.5t193.5 46.5t170 85t67 123q-2 61 -50.5 94t-107.5 33q-143 0 -269 -123t-157 -275zM309 1247q0 49 30 90t77 41q84 0 84 -90q0 -53 -28 -96t-77 -43q-41 0 -63.5 28.5t-22.5 69.5zM711 1255q0 49 34.5 86t84.5 37q33 0 53 -27.5 t20 -62.5q0 -51 -28.5 -95t-77.5 -44q-43 0 -64.5 30.5t-21.5 75.5z" />
<glyph unicode="&#xec;" horiz-adv-x="573" d="M121 850q0 14 10 26.5t15.5 15.5t25.5 13q139 70 174 70q59 0 60 -66q0 -20 -17 -118l-41 -222l-29 -174q-2 -14 -10 -61t-15 -89t-7 -57q0 -20 10 -31.5t22.5 -15.5t32.5 -6q51 -4 51 -39q0 -37 -82.5 -74.5t-130.5 -37.5q-63 0 -63 82q0 59 20 174l56 331 q23 117 22 181q0 29 -16 43t-35.5 15t-36 10t-16.5 30zM148 1382q0 14 24 15h37h105q63 0 71.5 -6.5t32.5 -67.5l82 -209q8 -12 8 -20q0 -14 -32 -15q-16 0 -26.5 1t-20 7.5t-13.5 9.5t-16 16t-19 20l-229 237q-4 8 -4 12z" />
<glyph unicode="&#xed;" horiz-adv-x="573" d="M121 850q0 14 10 26.5t15.5 15.5t25.5 13q139 70 174 70q59 0 60 -66q0 -20 -17 -118l-41 -222l-29 -174q-2 -14 -10 -61t-15 -89t-7 -57q0 -20 10 -31.5t22.5 -15.5t32.5 -6q51 -4 51 -39q0 -37 -82.5 -74.5t-130.5 -37.5q-63 0 -63 82q0 59 20 174l56 331 q23 117 22 181q0 29 -16 43t-35.5 15t-36 10t-16.5 30zM160 1087q0 12 33 54l163 223q14 20 22.5 24.5t31.5 4.5h41h102q66 0 65 -17q0 -6 -6 -14t-14 -13.5t-18.5 -13.5t-12.5 -10l-317 -238q-18 -14 -39 -14q-51 0 -51 14z" />
<glyph unicode="&#xee;" horiz-adv-x="573" d="M62 1104q0 27 61 76l230 188q47 37 57 37q8 0 16.5 -3t14.5 -11.5t10 -13.5t10 -15t8 -14l117 -183q31 -47 31 -59q0 -10 -9.5 -18.5t-19.5 -8.5q-12 0 -67 41l-138 113l-213 -119q-63 -35 -82 -35q-10 0 -18 7.5t-8 17.5zM121 850q0 14 10 26.5t15.5 15.5t25.5 13 q139 70 174 70q59 0 60 -66q0 -20 -17 -118l-41 -222l-29 -174q-2 -14 -10 -61t-15 -89t-7 -57q0 -20 10 -31.5t22.5 -15.5t32.5 -6q51 -4 51 -39q0 -37 -82.5 -74.5t-130.5 -37.5q-63 0 -63 82q0 59 20 174l56 331q23 117 22 181q0 29 -16 43t-35.5 15t-36 10t-16.5 30z " />
<glyph unicode="&#xef;" horiz-adv-x="573" d="M84 1247q0 49 30 90t77 41q84 0 84 -90q0 -53 -28 -96t-77 -43q-41 0 -63.5 28.5t-22.5 69.5zM121 850q0 14 10 26.5t15.5 15.5t25.5 13q139 70 174 70q59 0 60 -66q0 -20 -17 -118l-41 -222l-29 -174q-2 -14 -10 -61t-15 -89t-7 -57q0 -20 10 -31.5t22.5 -15.5t32.5 -6 q51 -4 51 -39q0 -37 -82.5 -74.5t-130.5 -37.5q-63 0 -63 82q0 59 20 174l56 331q23 117 22 181q0 29 -16 43t-35.5 15t-36 10t-16.5 30zM486 1255q0 49 34.5 86t84.5 37q33 0 53 -27.5t20 -62.5q0 -51 -28.5 -95t-77.5 -44q-43 0 -64.5 30.5t-21.5 75.5z" />
<glyph unicode="&#xf0;" horiz-adv-x="1146" d="M12 1503q0 47 56 47q176 0 383 -92l157 121q70 55 101.5 72.5t50.5 -2.5l20 -23q18 -23 -2 -47.5t-69 -62.5l-148 -115q240 -141 370 -340t130 -428q0 -262 -187.5 -459t-404.5 -197q-180 0 -306 118t-126 296q0 231 175 407.5t404 176.5q82 0 220 -70q-129 271 -377 416 l-219 -172q-18 -14 -27.5 -20.5t-28 -15.5t-33 -7t-26.5 14l-19 21q-4 6 -6 11t0 12t5.5 13.5t10.5 13.5t12 13t15.5 14.5t15.5 12.5l15 12t14 10l162 127q-104 45 -219 64q-2 0 -17.5 2t-22.5 3t-21.5 3t-22.5 6t-17.5 10.5t-13.5 15.5t-4 19zM213 373q0 -133 71.5 -215 t202.5 -82q174 0 286 156.5t112 338.5q0 127 -68.5 216.5t-193.5 89.5q-188 0 -299 -154t-111 -350z" />
<glyph unicode="&#xf1;" horiz-adv-x="1228" d="M113 23q0 2 6 32l12 54l82 436q20 111 20 170q0 45 -9 64.5t-46 35.5q-4 2 -12 5t-12 5t-10.5 6.5t-9.5 9.5t-3 11q0 25 80 74t104 49q33 0 47.5 -44t14.5 -85q0 -86 -35 -195q63 139 173 231.5t249 92.5q117 0 196.5 -70.5t79.5 -185.5q1 -70 -26 -211l-35 -184 q-18 -100 -18 -140q0 -45 44 -54t44 -30q0 -39 -85 -77.5t-128 -38.5q-53 0 -54 79q0 31 10.5 93.5t27 145.5t20.5 104l18 102q27 139 27 194q0 76 -44 122t-120 46q-109 0 -194 -93t-130 -214q-86 -233 -116 -506q-2 -16 -6.5 -27.5t-7.5 -17.5t-13 -9t-15.5 -4t-23.5 0 t-27 1q-2 0 -13 -1t-20.5 -1t-19.5 2t-16 7t-6 16zM420 1176q0 18 24.5 56t45.5 58q59 63 118 64q41 0 137.5 -31t125.5 -31q35 0 71.5 35t51.5 35q10 0 18 -10.5t8 -20.5q0 -23 -51 -82q-82 -92 -139 -92q-47 0 -141.5 33t-127.5 33q-35 0 -71.5 -35t-50.5 -35 q-18 0 -19 23z" />
<glyph unicode="&#xf2;" horiz-adv-x="1146" d="M37 391q0 231 175 407.5t404 176.5q195 0 320 -116t125 -308q0 -231 -179.5 -402.5t-412.5 -171.5q-180 0 -306 118t-126 296zM215 373q0 -133 70.5 -214t201.5 -81q174 0 286 155.5t112 337.5q0 127 -68.5 216.5t-193.5 89.5q-188 0 -298 -154t-110 -350zM455 1382 q0 14 24 15h37h105q63 0 71.5 -6.5t32.5 -67.5l82 -209q8 -12 8 -20q0 -14 -32 -15q-16 0 -26.5 1t-20 7.5t-13.5 9.5t-16 16t-19 20l-229 237q-4 8 -4 12z" />
<glyph unicode="&#xf3;" horiz-adv-x="1146" d="M37 391q0 231 175 407.5t404 176.5q195 0 320 -116t125 -308q0 -231 -179.5 -402.5t-412.5 -171.5q-180 0 -306 118t-126 296zM215 373q0 -133 70.5 -214t201.5 -81q174 0 286 155.5t112 337.5q0 127 -68.5 216.5t-193.5 89.5q-188 0 -298 -154t-110 -350zM447 1087 q0 12 33 54l163 223q14 20 22.5 24.5t31.5 4.5h41h102q66 0 65 -17q0 -6 -6 -14t-14 -13.5t-18.5 -13.5t-12.5 -10l-317 -238q-18 -14 -39 -14q-51 0 -51 14z" />
<glyph unicode="&#xf4;" horiz-adv-x="1146" d="M37 391q0 231 175 407.5t404 176.5q195 0 320 -116t125 -308q0 -231 -179.5 -402.5t-412.5 -171.5q-180 0 -306 118t-126 296zM215 373q0 -133 70.5 -214t201.5 -81q174 0 286 155.5t112 337.5q0 127 -68.5 216.5t-193.5 89.5q-188 0 -298 -154t-110 -350zM359 1104 q0 27 61 76l230 188q47 37 57 37q8 0 16.5 -3t14.5 -11.5t10 -13.5t10 -15t8 -14l117 -183q31 -47 31 -59q0 -10 -9.5 -18.5t-19.5 -8.5q-12 0 -67 41l-138 113l-213 -119q-63 -35 -82 -35q-10 0 -18 7.5t-8 17.5z" />
<glyph unicode="&#xf5;" horiz-adv-x="1146" d="M37 391q0 231 175 407.5t404 176.5q195 0 320 -116t125 -308q0 -231 -179.5 -402.5t-412.5 -171.5q-180 0 -306 118t-126 296zM215 373q0 -133 70.5 -214t201.5 -81q174 0 286 155.5t112 337.5q0 127 -68.5 216.5t-193.5 89.5q-188 0 -298 -154t-110 -350zM379 1176 q0 18 24.5 56t45.5 58q59 63 118 64q41 0 137.5 -31t125.5 -31q35 0 71.5 35t51.5 35q10 0 18 -10.5t8 -20.5q0 -23 -51 -82q-82 -92 -139 -92q-47 0 -141.5 33t-127.5 33q-35 0 -71.5 -35t-50.5 -35q-18 0 -19 23z" />
<glyph unicode="&#xf6;" horiz-adv-x="1146" d="M37 391q0 231 175 407.5t404 176.5q195 0 320 -116t125 -308q0 -231 -179.5 -402.5t-412.5 -171.5q-180 0 -306 118t-126 296zM215 373q0 -133 70.5 -214t201.5 -81q174 0 286 155.5t112 337.5q0 127 -68.5 216.5t-193.5 89.5q-188 0 -298 -154t-110 -350zM391 1247 q0 49 30 90t77 41q84 0 84 -90q0 -53 -28 -96t-77 -43q-41 0 -63.5 28.5t-22.5 69.5zM793 1255q0 49 34.5 86t84.5 37q33 0 53 -27.5t20 -62.5q0 -51 -28.5 -95t-77.5 -44q-43 0 -64.5 30.5t-21.5 75.5z" />
<glyph unicode="&#xf7;" horiz-adv-x="1351" d="M143 449v129h1065v-129h-1065zM569 182q0 45 32 76t77 31q47 0 78.5 -33t31.5 -80q0 -43 -33.5 -74.5t-76.5 -31.5q-47 0 -78 32.5t-31 79.5zM569 850q0 45 32 75.5t77 30.5q47 0 78.5 -32.5t31.5 -79.5q0 -43 -33.5 -75t-76.5 -32q-47 0 -78 33t-31 80z" />
<glyph unicode="&#xf8;" horiz-adv-x="1146" d="M37 391q0 106 48 215t126 189q170 180 414 180q126 0 241 -66l35 37q53 70 80 70q18 0 31.5 -11.5t13.5 -30t-57 -75.5l-35 -39q127 -123 127 -297q0 -233 -168 -405q-80 -82 -193.5 -131.5t-226.5 -49.5q-127 0 -250 68l-35 -41q-4 -4 -15 -20.5t-18.5 -23.5t-20.5 -15 t-25 -8q-16 0 -29.5 12t-13.5 26q0 8 7 21.5t16 23t20.5 21.5t13.5 14l35 43q-57 49 -89 130t-32 163zM213 365q0 -94 41 -164l526 620q-66 53 -155 53q-193 0 -302.5 -154.5t-109.5 -354.5zM307 133q82 -59 178 -59q178 0 289 157.5t111 343.5q0 95 -45 181z" />
<glyph unicode="&#xf9;" horiz-adv-x="1187" d="M121 856q0 35 90 77t129 42q47 0 47 -76q0 -51 -45 -309l-31 -193q-16 -131 -16 -145q0 -68 41 -115t108 -47q98 0 178 80t127.5 205t72 233.5t36.5 208.5q10 111 16.5 121t17.5 15t20.5 5t25.5 -1t20.5 -1t15.5 1t20.5 1t19.5 -2t15 -7t5 -15q0 -12 -4 -29l-49 -291 l-27 -176q-25 -154 -24 -196q0 -39 16.5 -60.5t34.5 -26.5t34.5 -13.5t16.5 -24.5q0 -27 -80 -80t-104 -53q-59 0 -60 151l9 135q-154 -293 -387 -293q-113 0 -192 71t-79 181q0 84 41 320l21 119q12 66 12 98q0 27 -14.5 40t-31.5 14t-31.5 9.5t-14.5 26.5zM475 1382 q0 14 24 15h37h105q63 0 71.5 -6.5t32.5 -67.5l82 -209q8 -12 8 -20q0 -14 -32 -15q-16 0 -26.5 1t-20 7.5t-13.5 9.5t-16 16t-19 20l-229 237q-4 8 -4 12z" />
<glyph unicode="&#xfa;" horiz-adv-x="1187" d="M121 856q0 35 90 77t129 42q47 0 47 -76q0 -51 -45 -309l-31 -193q-16 -131 -16 -145q0 -68 41 -115t108 -47q98 0 178 80t127.5 205t72 233.5t36.5 208.5q10 111 16.5 121t17.5 15t20.5 5t25.5 -1t20.5 -1t15.5 1t20.5 1t19.5 -2t15 -7t5 -15q0 -12 -4 -29l-49 -291 l-27 -176q-25 -154 -24 -196q0 -39 16.5 -60.5t34.5 -26.5t34.5 -13.5t16.5 -24.5q0 -27 -80 -80t-104 -53q-59 0 -60 151l9 135q-154 -293 -387 -293q-113 0 -192 71t-79 181q0 84 41 320l21 119q12 66 12 98q0 27 -14.5 40t-31.5 14t-31.5 9.5t-14.5 26.5zM467 1087 q0 12 33 54l163 223q14 20 22.5 24.5t31.5 4.5h41h102q66 0 65 -17q0 -6 -6 -14t-14 -13.5t-18.5 -13.5t-12.5 -10l-317 -238q-18 -14 -39 -14q-51 0 -51 14z" />
<glyph unicode="&#xfb;" horiz-adv-x="1187" d="M121 856q0 35 90 77t129 42q47 0 47 -76q0 -51 -45 -309l-31 -193q-16 -131 -16 -145q0 -68 41 -115t108 -47q98 0 178 80t127.5 205t72 233.5t36.5 208.5q10 111 16.5 121t17.5 15t20.5 5t25.5 -1t20.5 -1t15.5 1t20.5 1t19.5 -2t15 -7t5 -15q0 -12 -4 -29l-49 -291 l-27 -176q-25 -154 -24 -196q0 -39 16.5 -60.5t34.5 -26.5t34.5 -13.5t16.5 -24.5q0 -27 -80 -80t-104 -53q-59 0 -60 151l9 135q-154 -293 -387 -293q-113 0 -192 71t-79 181q0 84 41 320l21 119q12 66 12 98q0 27 -14.5 40t-31.5 14t-31.5 9.5t-14.5 26.5zM379 1104 q0 27 61 76l230 188q47 37 57 37q8 0 16.5 -3t14.5 -11.5t10 -13.5t10 -15t8 -14l117 -183q31 -47 31 -59q0 -10 -9.5 -18.5t-19.5 -8.5q-12 0 -67 41l-138 113l-213 -119q-63 -35 -82 -35q-10 0 -18 7.5t-8 17.5z" />
<glyph unicode="&#xfc;" horiz-adv-x="1187" d="M121 856q0 35 90 77t129 42q47 0 47 -76q0 -51 -45 -309l-31 -193q-16 -131 -16 -145q0 -68 41 -115t108 -47q98 0 178 80t127.5 205t72 233.5t36.5 208.5q10 111 16.5 121t17.5 15t20.5 5t25.5 -1t20.5 -1t15.5 1t20.5 1t19.5 -2t15 -7t5 -15q0 -12 -4 -29l-49 -291 l-27 -176q-25 -154 -24 -196q0 -39 16.5 -60.5t34.5 -26.5t34.5 -13.5t16.5 -24.5q0 -27 -80 -80t-104 -53q-59 0 -60 151l9 135q-154 -293 -387 -293q-113 0 -192 71t-79 181q0 84 41 320l21 119q12 66 12 98q0 27 -14.5 40t-31.5 14t-31.5 9.5t-14.5 26.5zM381 1247 q0 49 30 90t77 41q84 0 84 -90q0 -53 -28 -96t-77 -43q-41 0 -63.5 28.5t-22.5 69.5zM783 1255q0 49 34.5 86t84.5 37q33 0 53 -27.5t20 -62.5q0 -51 -28.5 -95t-77.5 -44q-43 0 -64.5 30.5t-21.5 75.5z" />
<glyph unicode="&#xfd;" horiz-adv-x="1024" d="M33 -305q0 39 28.5 62.5t67.5 23.5q23 0 52.5 -11.5t47.5 -11.5q63 0 169 95.5t163 175.5q-66 -45 -115 -45q-133 0 -208 157q-66 132 -66 355l14 276q0 29 -7 40t-32 19q-45 10 -45 35q0 33 93.5 71t138.5 38t45 -49q0 -33 -10 -74q-35 -195 -35 -317q0 -57 7 -120 t24.5 -140.5t58.5 -128t98 -50.5q100 0 203 217q39 76 74 183.5t35 177.5q0 51 -37 100t-37 86q0 43 27.5 79t70.5 36q59 0 83 -55.5t24 -120.5q0 -160 -76 -364t-178 -363q-98 -154 -269.5 -310.5t-302.5 -156.5q-45 0 -75.5 23.5t-30.5 66.5zM385 1087q0 12 33 54l163 223 q14 20 22.5 24.5t31.5 4.5h41h102q66 0 65 -17q0 -6 -6 -14t-14 -13.5t-18.5 -13.5t-12.5 -10l-317 -238q-18 -14 -39 -14q-51 0 -51 14z" />
<glyph unicode="&#xfe;" horiz-adv-x="1187" d="M-49 -354q0 23 14.5 34t42.5 21q51 18 64 70l49 270l49 295l106 713q18 125 19 172q0 35 -18.5 52t-39 19t-39 12.5t-18.5 31t47 46.5q145 84 189 84q41 0 41 -73q0 -111 -29 -226l-74 -487l4 -4q111 299 377 299q172 0 270.5 -112.5t98.5 -287.5q0 -137 -74 -275 t-202 -230.5t-267 -92.5q-27 0 -57.5 3.5t-69.5 11.5t-64.5 26.5t-25.5 44.5q0 18 10.5 42t26.5 24q2 0 60.5 -23.5t111.5 -23.5q117 0 204 80t126 188.5t39 220.5q0 123 -59.5 203t-176.5 80q-176 0 -278 -223q-12 -27 -23.5 -54.5t-21 -61.5t-15.5 -56.5t-13 -64.5 t-10 -56t-10.5 -64.5t-9.5 -58.5l-41 -240q-25 -162 -24 -211q0 -29 13 -45t28.5 -20t29 -15.5t13.5 -33.5q0 -45 -58 -45h-250q-66 0 -65 41z" />
<glyph unicode="&#xff;" horiz-adv-x="1024" d="M33 -305q0 39 28.5 62.5t67.5 23.5q23 0 52.5 -11.5t47.5 -11.5q63 0 169 95.5t163 175.5q-66 -45 -115 -45q-133 0 -208 157q-66 132 -66 355l14 276q0 29 -7 40t-32 19q-45 10 -45 35q0 33 93.5 71t138.5 38t45 -49q0 -33 -10 -74q-35 -195 -35 -317q0 -57 7 -120 t24.5 -140.5t58.5 -128t98 -50.5q100 0 203 217q39 76 74 183.5t35 177.5q0 51 -37 100t-37 86q0 43 27.5 79t70.5 36q59 0 83 -55.5t24 -120.5q0 -160 -76 -364t-178 -363q-98 -154 -269.5 -310.5t-302.5 -156.5q-45 0 -75.5 23.5t-30.5 66.5zM329 1247q0 49 30 90t77 41 q84 0 84 -90q0 -53 -28 -96t-77 -43q-41 0 -63.5 28.5t-22.5 69.5zM731 1255q0 49 34.5 86t84.5 37q33 0 53 -27.5t20 -62.5q0 -51 -28.5 -95t-77.5 -44q-43 0 -64.5 30.5t-21.5 75.5z" />
<glyph unicode="&#x152;" horiz-adv-x="2048" d="M90 614q0 342 205 607q109 137 263.5 223t318.5 86q172 0 290 -88q14 43 24.5 50t59.5 7h727q35 0 35 -49q0 -12 -4 -38t-4 -32v-53q0 -76 -39 -76q-25 0 -43 25q-16 25 -24.5 33t-22.5 20t-37 23q-88 41 -235 41q-215 0 -258 -52q-23 -31 -58 -219l-45 -266h330 q76 8 119 43q29 25 53 25q37 0 37 -33l-8 -41l-13 -84q0 -2 -1 -10t-1 -10.5t-1 -9.5t-2 -10t-4 -8t-5 -7t-5 -6.5t-7 -5.5t-10.5 -2t-12.5 -1q-18 0 -45 19q-12 10 -25.5 17t-22.5 11.5t-25.5 5.5t-24.5 1h-29.5h-32.5h-280l-39 -222q-33 -186 -33 -311q0 -76 41 -94 q59 -29 227 -29q141 0 226 33q70 27 172 121q35 27 55 26q14 0 27.5 -9t13.5 -21q0 -14 -8 -35l-43 -103l-11.5 -34.5l-9.5 -28.5t-9 -17.5t-12 -13.5l-17.5 -7t-27 -5h-36.5h-770h-21.5t-12.5 6t-7 18.5t2 18.5q-109 -74 -268 -74q-254 0 -426 199q-150 174 -150 446z M287 575q0 -227 114 -352q133 -145 324 -145q133 0 197 72q35 39 59 163l76 461l43 289l20 215q0 68 -35 96q-61 47 -178 47q-154 0 -277.5 -79.5t-195.5 -207.5t-109.5 -271.5t-37.5 -287.5z" />
<glyph unicode="&#x153;" horiz-adv-x="1884" d="M39 395q0 231 177 405.5t409 174.5q127 0 233.5 -58.5t147.5 -171.5q76 117 212 173.5t287.5 56.5t229.5 -70q68 -61 67 -149q0 -98 -91 -173t-226 -113t-255 -56.5t-212 -18.5q-2 -135 92 -213t233 -78q96 0 182.5 39t135.5 78t59 39q39 0 39 -35q0 -31 -98 -108 q-190 -139 -383 -140q-121 0 -225.5 57.5t-139.5 164.5q-63 -106 -183 -164t-253 -58q-190 0 -314 115t-124 303zM213 373q0 -129 64.5 -216t191.5 -87q170 0 297 155q119 141 119 357q0 129 -73 213t-200 84q-178 0 -288.5 -159t-110.5 -347zM1024 500l31 4q578 51 577 254 q0 57 -47 90t-106 33q-160 0 -289 -111.5t-166 -269.5z" />
<glyph unicode="&#x178;" horiz-adv-x="1515" d="M162 1448q0 51 63 51h293q59 0 60 -39q0 -25 -17.5 -39t-39 -19t-39 -20.5t-17.5 -40.5q0 -55 128 -285.5t206 -346.5q86 59 312 317t226 317q0 25 -12 37.5t-39 22.5q-2 0 -4 2q-39 23 -41 45q0 49 59 49h277q51 0 51 -37q0 -8 -3 -16t-9 -15.5l-10 -12.5t-14.5 -13 t-12.5 -10q-76 -66 -162 -183q-70 -94 -254 -294q-145 -158 -278 -289l-8 -13l-35 -200q-2 -18 -12.5 -76.5t-16.5 -107t-6 -72.5q0 -23 7 -35t16.5 -18.5t29.5 -14.5l25 -8q33 -14 33 -41q0 -43 -56 -43h-356q-47 0 -47 37t53 49q63 16 88 72q27 63 64 311l24 129 q-37 47 -70.5 100.5t-73.5 120t-61 99.5q-66 106 -188 372q-2 6 -7 17.5t-7 15.5t-7.5 13.5t-7.5 12.5t-7 10t-8 10t-9 8t-11.5 8.5t-13.5 6.5t-16 7q-39 16 -39 49zM616 1771q0 49 30 90t77 41q84 0 84 -90q0 -53 -28 -96t-77 -43q-41 0 -63.5 28.5t-22.5 69.5zM1018 1779 q0 49 34.5 86t84.5 37q33 0 53 -27.5t20 -62.5q0 -51 -28.5 -95t-77.5 -44q-43 0 -64.5 30.5t-21.5 75.5z" />
<glyph unicode="&#x2c6;" horiz-adv-x="696" d="M164 1104q0 27 61 76l230 188q47 37 57 37q8 0 16.5 -3t14.5 -11.5t10 -13.5t10 -15t8 -14l117 -183q31 -47 31 -59q0 -10 -9.5 -18.5t-19.5 -8.5q-12 0 -67 41l-138 113l-213 -119q-63 -35 -82 -35q-10 0 -18 7.5t-8 17.5z" />
<glyph unicode="&#x2dc;" horiz-adv-x="737" d="M174 1176q0 18 24.5 56t45.5 58q59 63 118 64q41 0 137.5 -31t125.5 -31q35 0 71.5 35t51.5 35q10 0 18 -10.5t8 -20.5q0 -23 -51 -82q-82 -92 -139 -92q-47 0 -141.5 33t-127.5 33q-35 0 -71.5 -35t-50.5 -35q-18 0 -19 23z" />
<glyph unicode="&#x2000;" horiz-adv-x="989" />
<glyph unicode="&#x2001;" horiz-adv-x="1978" />
<glyph unicode="&#x2002;" horiz-adv-x="989" />
<glyph unicode="&#x2003;" horiz-adv-x="1978" />
<glyph unicode="&#x2004;" horiz-adv-x="659" />
<glyph unicode="&#x2005;" horiz-adv-x="494" />
<glyph unicode="&#x2006;" horiz-adv-x="329" />
<glyph unicode="&#x2007;" horiz-adv-x="329" />
<glyph unicode="&#x2008;" horiz-adv-x="247" />
<glyph unicode="&#x2009;" horiz-adv-x="395" />
<glyph unicode="&#x200a;" horiz-adv-x="109" />
<glyph unicode="&#x2010;" horiz-adv-x="532" d="M37 549q0 25 12 65q6 20 14 24.5t33 4.5h336q41 0 41 -25q0 -59 -20 -79q-16 -12 -86 -13h-295q-35 0 -35 23z" />
<glyph unicode="&#x2011;" horiz-adv-x="532" d="M37 549q0 25 12 65q6 20 14 24.5t33 4.5h336q41 0 41 -25q0 -59 -20 -79q-16 -12 -86 -13h-295q-35 0 -35 23z" />
<glyph unicode="&#x2012;" horiz-adv-x="532" d="M37 549q0 25 12 65q6 20 14 24.5t33 4.5h336q41 0 41 -25q0 -59 -20 -79q-16 -12 -86 -13h-295q-35 0 -35 23z" />
<glyph unicode="&#x2013;" horiz-adv-x="1024" d="M10 549q0 12 17 51l6 23q16 20 59 20h967q20 0 30.5 -1t18.5 -7t8 -20.5t-8 -41t-18 -34.5q-19 -13 -119 -13h-910q-51 0 -51 23z" />
<glyph unicode="&#x2014;" horiz-adv-x="2048" d="M10 549q0 18 15 51l10 23q14 20 63 20h1985q20 0 30.5 -1t18.5 -7t8 -20.5t-8 -41t-18 -34.5q-18 -12 -119 -13h-1929q-55 0 -56 23z" />
<glyph unicode="&#x2018;" d="M268 1169q0 123 117 275q35 43 91 94t87 51q23 0 23 -24q0 -14 -23 -29q-84 -53 -135 -135q-45 -68 -45 -107q0 -24 23 -24h20q39 0 63.5 -25.5t24.5 -62.5q0 -53 -39 -91t-92 -38q-51 0 -83 32.5t-32 83.5z" />
<glyph unicode="&#x2019;" d="M244 1016q0 14 24 26q82 53 135 136q45 68 46 106q0 25 -23 25h-20q-39 0 -64 25.5t-25 64.5q0 53 39 91t93 38q49 0 80.5 -34t31.5 -85q0 -129 -117 -274q-33 -41 -89 -92.5t-87 -51.5q-25 0 -24 25z" />
<glyph unicode="&#x201a;" d="M121 -313q0 14 22 28q82 51 136 135q45 68 45 105q0 27 -23 27l-20 -2q-39 0 -63.5 25.5t-24.5 64.5q0 53 38.5 91t92.5 38q49 0 80.5 -34t31.5 -83q0 -131 -117 -277q-33 -41 -89 -92t-87 -51q-23 0 -22 25z" />
<glyph unicode="&#x201c;" horiz-adv-x="942" d="M268 1169q0 123 117 275q35 43 91 94t87 51q23 0 23 -24q0 -14 -23 -29q-84 -53 -135 -135q-45 -68 -45 -107q0 -24 23 -24h20q39 0 63.5 -25.5t24.5 -62.5q0 -53 -39 -91t-92 -38q-51 0 -83 32.5t-32 83.5zM614 1171q0 129 117 275q33 41 89.5 92t86.5 51q25 0 25 -24 q0 -14 -25 -27q-82 -53 -135 -135q-45 -68 -45 -107q0 -24 25 -24h18q39 0 63.5 -25.5t24.5 -64.5q0 -53 -39 -91t-92 -38q-49 0 -81 33.5t-32 84.5z" />
<glyph unicode="&#x201d;" horiz-adv-x="942" d="M244 1016q0 14 24 26q82 53 135 136q45 68 46 106q0 25 -23 25h-20q-39 0 -64 25.5t-25 64.5q0 53 39 91t93 38q49 0 80.5 -34t31.5 -85q0 -129 -117 -274q-33 -41 -89 -92.5t-87 -51.5q-25 0 -24 25zM590 1014q0 10 22 28q78 47 138 136q43 74 43 104q0 27 -23 27 l-20 -2q-37 0 -62.5 25.5t-25.5 64.5q0 53 38.5 91t92.5 38q51 0 82.5 -34t31.5 -83q0 -125 -116 -276q-31 -41 -89.5 -92.5t-89.5 -51.5q-23 0 -22 25z" />
<glyph unicode="&#x201e;" horiz-adv-x="942" d="M23 -313q0 10 22 28q80 47 135 135q45 68 45 105q1 27 -22 27l-21 -2q-37 0 -62.5 25.5t-25.5 64.5q0 53 39 91t92 38q51 0 83 -34t32 -83q0 -125 -117 -277q-31 -41 -89 -92t-89 -51q-23 0 -22 25zM369 -315q0 16 22 28q82 53 135 135q45 68 45 107q1 25 -22 25h-21 q-39 0 -63.5 25.5t-24.5 62.5q0 53 39 92t92 39q49 0 81 -34t32 -85q0 -129 -117 -275q-33 -41 -89 -93t-87 -52q-23 0 -22 25z" />
<glyph unicode="&#x2022;" horiz-adv-x="942" d="M164 647q0 168 112.5 284t278.5 116q119 0 192.5 -88.5t73.5 -206.5q0 -166 -105.5 -285t-269.5 -119q-127 0 -204.5 85t-77.5 214z" />
<glyph unicode="&#x2026;" horiz-adv-x="2048" d="M252 80q0 55 36 93t91 38q37 0 61.5 -28.5t24.5 -67.5q0 -53 -35 -92t-88 -39q-41 0 -65.5 27.5t-24.5 68.5zM932 80q0 55 36 93t91 38q39 0 62.5 -28.5t23.5 -67.5q0 -53 -34 -92t-87 -39q-41 0 -66.5 27.5t-25.5 68.5zM1616 80q0 55 36 93t91 38q37 0 61.5 -28.5 t24.5 -67.5q0 -53 -35 -92t-88 -39q-41 0 -65.5 27.5t-24.5 68.5z" />
<glyph unicode="&#x202f;" horiz-adv-x="395" />
<glyph unicode="&#x2039;" horiz-adv-x="409" d="M63 514q0 16 40 73.5t65 88.5l74 100q4 4 18 23.5t23.5 31t25 22.5t27.5 11q41 0 41 -32.5t-82 -159.5t-82 -160q0 -41 26.5 -153.5t26.5 -149.5q0 -43 -39 -43q-10 0 -18 7t-15.5 19.5t-12.5 22.5t-10 24.5t-5 16.5l-37 86l-35 86l-16 39q-14 39 -15 47z" />
<glyph unicode="&#x203a;" horiz-adv-x="409" d="M12 198.5q0 32.5 82 159.5t82 160q0 41 -25.5 153.5t-25.5 149.5q0 43 39 43q10 0 18 -7t14.5 -19.5t11.5 -22.5t10 -24.5t5 -16.5l37 -86l35 -86l16 -39q14 -39 15 -47q0 -16 -40 -73.5t-65 -88.5l-74 -100q-4 -4 -18 -23.5t-23.5 -31t-24.5 -22.5t-28 -11 q-41 0 -41 32.5z" />
<glyph unicode="&#x205f;" horiz-adv-x="494" />
<glyph unicode="&#x2122;" horiz-adv-x="1679" d="M102 1339q0 6 23 88q2 6 7 24.5t8 29t11.5 24t19.5 19.5t26 6h606q61 0 76 -14q16 -18 16 -125l2 -21q0 -20 -1 -27.5t-5 -21.5t-13.5 -20.5t-23.5 -6.5q-31 0 -47 41q-27 55 -55 68q-37 16 -134 16h-40l-91 -571q-14 -115 -14 -125q0 -12 11.5 -18.5t23.5 -8.5t23.5 -13 t11.5 -32q0 -33 -19.5 -41t-56.5 -8h-180q-51 0 -51 43q0 47 49 60q35 12 41 26q2 4 4 12l26 160l82 516h-26q-55 0 -74 -1t-49.5 -9t-51 -28.5t-47.5 -57.5q-25 -33 -47 -33q-41 0 -41 49zM799 649q0 31 37 51q10 6 16 16.5t11 27t7 26.5t5.5 30.5t3.5 24.5l92 492l10 63 q0 4 2 14.5t2 16.5q0 12 -26.5 26.5t-26.5 43.5q0 49 55 49h156q10 0 16 -1t11.5 -5t8.5 -6t4 -10.5t2 -11.5t2 -15.5t1 -16.5q27 -248 98 -448q2 2 52.5 89t110.5 197.5t81 159.5q6 14 11 24.5t9 17.5t11.5 12.5t9.5 8.5t11 4t10 1h14.5h15.5h86q23 0 36 -2t24.5 -13.5 t11.5 -31.5q0 -35 -41 -56q-25 -10 -29 -20q-6 -14 -14 -80l-15 -98l-63 -510q0 -14 14 -23q31 -16 31 -45q0 -25 -15.5 -36t-25.5 -12t-39 -1h-106q-86 0 -86 45q0 39 51 55q12 4 19 8.5t11.5 11.5t5.5 11t3 18.5t4 22.5l74 516l-175 -305l-57 -88q-49 -66 -76 -72 q-16 0 -30.5 12.5t-24.5 34t-16 39t-13.5 43t-9.5 29.5l-80 338l-96 -545l-4 -45q0 -23 39 -35t39 -47q0 -47 -47 -47h-158q-51 0 -51 47z" />
<glyph unicode="&#x25fc;" horiz-adv-x="972" d="M0 0v973h973v-973h-973z" />
<glyph unicode="&#xfb01;" horiz-adv-x="1310" d="M-88 -317q0 37 28.5 61.5t65.5 24.5q18 0 51 -13q20 -8 29 -8q10 0 19.5 4t16.5 13.5t13 17.5t12.5 22.5t9.5 21.5t8 22.5t5 17.5q39 119 96 483l78 500h-41q-115 0 -115 33q0 16 3.5 27.5t6.5 19.5t12 13t14 8t18.5 4t19.5 1h22.5h24.5h53q12 86 23.5 138.5t33 132.5 t53.5 129t77 98t112.5 72.5t153.5 23.5q127 0 238.5 -62.5t111.5 -180.5q0 -43 -27.5 -70t-70.5 -27q-84 0 -123 127q-29 104 -139 105q-59 0 -104.5 -26.5t-72 -60.5t-48 -95.5t-29.5 -100.5t-19.5 -110.5t-15.5 -92.5h393q33 0 64 4.5t52.5 9.5t25.5 5q61 0 61 -64 q0 -37 -18 -133l-72 -424q-23 -135 -23 -161q0 -31 14.5 -41.5t47.5 -12.5q53 -4 53 -39q0 -29 -47 -55q-29 -16 -85 -38.5t-79 -22.5q-68 0 -67 104q0 47 24 184l53 312q18 121 19 161q0 49 -21.5 73t-47.5 28t-79 4h-286l-74 -483q-2 -12 -12.5 -77t-15.5 -90.5t-16 -84 t-20.5 -92t-23.5 -76.5t-29 -76q-57 -123 -145 -193q-90 -74 -162 -73q-35 0 -61.5 21.5t-26.5 56.5z" />
<glyph unicode="&#xfb02;" horiz-adv-x="1269" d="M-92 -324q0 37 27.5 62.5t64.5 25.5q14 0 53 -14q20 -10 29 -10q88 0 172 563l90 547h-100q-45 0 -51.5 4t-2.5 37q-6 66 76 65h96q51 256 89 349q106 244 337 245q139 0 240 -53q96 53 137 53q57 0 45 -82l-8 -41l-6 -43l-174 -1009q-20 -123 -21 -176q0 -29 11.5 -44.5 t25 -17.5t24.5 -10t11 -23q0 -37 -86 -78.5t-127 -41.5q-35 0 -35 53q0 14 4.5 39.5t4.5 34.5l180 1075q14 76 14 114q0 70 -71.5 112t-147.5 42q-143 0 -203 -123q-47 -94 -88 -352l-4 -23h100q70 0 86 -8q12 -12 13 -37q0 -12 -4 -22t-10.5 -17.5t-16.5 -11.5t-18.5 -6 t-19.5 -3t-17 -1h-17h-8h-104l-56 -346q-51 -369 -104 -547q-43 -147 -127 -240q-102 -113 -225 -112q-33 0 -55.5 20.5t-22.5 50.5z" />
</font>
</defs>
</svg>
